<?xml version="1.0" encoding="UTF-8" standalone="no"?>
<!-- Created with Inkscape (http://www.inkscape.org/) -->

<svg
   xmlns:dc="http://purl.org/dc/elements/1.1/"
   xmlns:cc="http://creativecommons.org/ns#"
   xmlns:rdf="http://www.w3.org/1999/02/22-rdf-syntax-ns#"
   xmlns:svg="http://www.w3.org/2000/svg"
   xmlns="http://www.w3.org/2000/svg"
   xmlns:sodipodi="http://sodipodi.sourceforge.net/DTD/sodipodi-0.dtd"
   xmlns:inkscape="http://www.inkscape.org/namespaces/inkscape"
   version="1.1"
   id="svg10"
   width="3004"
   height="1108"
   viewBox="0 0 3004 1108"
   sodipodi:docname="LogoSIRMOG1.svg"
   inkscape:version="0.92.4 (5da689c313, 2019-01-14)">
  <metadata
     id="metadata16">
    <rdf:RDF>
      <cc:Work
         rdf:about="">
        <dc:format>image/svg+xml</dc:format>
        <dc:type
           rdf:resource="http://purl.org/dc/dcmitype/StillImage" />
        <dc:title></dc:title>
      </cc:Work>
    </rdf:RDF>
  </metadata>
  <defs
     id="defs14" />
  <sodipodi:namedview
     pagecolor="#ffffff"
     bordercolor="#666666"
     borderopacity="1"
     objecttolerance="10"
     gridtolerance="10"
     guidetolerance="10"
     inkscape:pageopacity="0"
     inkscape:pageshadow="2"
     inkscape:window-width="1920"
     inkscape:window-height="1001"
     id="namedview12"
     showgrid="false"
     inkscape:zoom="0.58588549"
     inkscape:cx="1502"
     inkscape:cy="280.90909"
     inkscape:window-x="-9"
     inkscape:window-y="-9"
     inkscape:window-maximized="1"
     inkscape:current-layer="svg10" />
  <path
     style="fill:#000000;stroke-width:1.33333337"
     d="m 2680.7469,1089.8988 c -119.0409,-9.179 -220.1904,-95.79703 -247.2605,-211.73823 -5.2741,-22.5893 -6.6907,-36.0228 -6.678,-63.3333 0.02,-44.6814 7.6888,-78.744 26.6409,-118.3419 7.5908,-15.8597 26.7356,-46.996 30.2211,-49.1502 0.7487,-0.4626 -4.4779,-6.7022 -11.6144,-13.8656 -7.4253,-7.4532 -12.5855,-13.6557 -12.0636,-14.5 0.638,-1.0324 14.706,-1.4756 46.8332,-1.4756 h 45.9213 v 46 c 0,42.6962 -0.1654,46 -2.3038,46 -1.2671,0 -6.9491,-4.618 -12.6267,-10.2623 -5.6775,-5.6442 -10.5703,-9.9942 -10.8729,-9.6666 -3.1555,3.416 -14.5124,23.0533 -19.5223,33.7563 -7.5155,16.0557 -12.2435,30.0405 -16.2863,48.1726 -2.5709,11.5303 -2.9784,17.2999 -3.0137,42.6666 -0.036,25.7687 0.3363,31.096 3.0635,43.8375 16.2088,75.7303 70.002,136.9255 141.3866,160.84163 45.7384,15.3237 91.498,15.3282 137.6414,0.013 18.9645,-6.2943 37.794,-15.6765 54.5342,-27.17283 6.9667,-4.7843 13.0904,-8.2798 13.6082,-7.7677 0.5178,0.5121 1.0256,9.7775 1.1285,20.58963 l 0.1869,19.6585 h 17.7928 c 12.2116,0 18.0972,0.4925 18.7632,1.57 1.2415,2.0088 -4.3856,6.7663 -22.0362,18.6304 -49.814,33.483 -113.3703,50.1698 -173.4434,45.5378 z m -2229.33326,-9.7652 c -75.79937,-5.1301 -146.84348,-18.1965 -196,-36.0481 -6.23333,-2.2637 -14.33333,-5.2038 -18,-6.5336 -16.77448,-6.0835 -45.10728,-19.9877 -62.99253,-30.9133 -10.01418,-6.1174 -31.45067,-20.88233 -35.84308,-24.68793 -1.55957,-1.3512 -5.71536,-4.8567 -9.23507,-7.7901 -15.54022,-12.9512 -30.369656,-27.3406 -39.929324,-38.7445 -2.933333,-3.4992 -6.252543,-7.3132 -7.376021,-8.4755 -4.265783,-4.4132 -11.957312,-14.6162 -11.957312,-15.8617 0,-0.7148 -0.9,-1.645 -2,-2.0671 -1.1,-0.4221 -2,-1.6863 -2,-2.8093 0,-1.123 -0.618831,-2.0419 -1.37518,-2.0419 -0.756348,0 -1.762179,-1.05 -2.235178,-2.3333 -0.473,-1.2833 -2.213001,-4.136 -3.86667,-6.3392 -1.65367,-2.2033 -3.646407,-5.5033 -4.428304,-7.3334 -1.565232,-3.6635 -3.549043,-6.9701 -7.094667,-11.8252 -1.283334,-1.7573 -2.333334,-4.0571 -2.333334,-5.1106 0,-1.0535 -0.9,-2.8154 -2,-3.9154 -1.1,-1.1 -2,-3.1571 -2,-4.5714 0,-1.4143 -0.552326,-2.5715 -1.227393,-2.5715 -0.675065,0 -1.650445,-1.95 -2.167509,-4.3333 -0.517064,-2.3833 -1.444679,-4.6563 -2.061366,-5.0511 -1.550392,-0.9926 -10.728258,-26.6228 -9.519787,-26.5851 0.53683,0.017 3.22347,5.2667 5.970314,11.6667 18.774991,43.7442 57.132224,89.8032 102.958711,123.6317 66.29378,48.93733 161.21203,76.85703 287.38037,84.53163 25.44186,1.5476 88.15952,1.5417 110.66666,-0.011 75.70628,-5.2206 140.33404,-21.3754 196.66667,-49.16043 89.17528,-43.9839 145.29252,-107.7957 161.96111,-184.1684 5.99036,-27.4469 6.8314,-64.9836 2.07298,-92.5213 -4.86448,-28.1516 -15.90013,-56.4802 -30.62088,-78.6041 C 838.99732,603.74287 783.3964,561.66616 728.74697,538.08978 678.50992,516.41694 590.57839,493.85036 453.41364,467.42878 345.43212,446.62866 289.18017,431.16968 250.00933,411.52984 228.13056,400.56007 215.30077,389.84508 204.67439,373.66768 184.71752,343.28574 184.40607,297.2928 203.93221,264.068 c 5.80462,-9.87685 24.64808,-31.44286 24.75878,-28.33597 0.0308,0.86429 -0.70102,2.36429 -1.62623,3.33333 -0.92523,0.96906 -2.42087,3.26191 -3.32367,5.09524 -0.90278,1.83334 -2.15792,4.23334 -2.78918,5.33334 -5.93052,10.33406 -13.53923,40.2757 -13.55295,53.33333 -0.0107,9.92719 6.76125,39.37901 10.26153,44.63001 0.96423,1.4465 1.75315,3.60351 1.75315,4.79335 0,1.18984 1.2,3.24932 2.66667,4.57664 1.46666,1.32732 2.66666,2.98396 2.66666,3.68144 0,1.94996 7.85692,11.66741 14.6053,18.06381 12.21352,11.57655 34.7574,24.49296 58.06137,33.26602 24.2728,9.13778 29.46908,10.98873 30.84927,10.98873 0.79744,0 7.08258,1.72303 13.96698,3.82893 32.38238,9.90567 81.4633,21.31218 135.18375,31.41696 13.93333,2.62086 31.33333,5.99495 38.66667,7.49799 7.33333,1.50303 16.63333,3.35968 20.66666,4.12588 4.03334,0.7662 13.93334,2.80539 22,4.53152 8.06667,1.72613 16.76667,3.49941 19.33334,3.94063 8.29609,1.42609 62.95001,14.06873 84.66666,19.58524 50.0629,12.71708 90.71239,25.30274 116.66667,36.12166 19.00784,7.92334 46.63207,21.89672 54.83457,27.73742 1.96739,1.4009 3.94124,2.5471 4.38634,2.5471 0.92604,0 17.10128,10.79039 18.11242,12.08267 0.36667,0.46861 3.06667,2.44473 6,4.39137 5.17246,3.43258 11.087,7.91404 21.37066,16.19263 10.07126,8.1076 29.12449,26.8936 35.01048,34.5195 3.33361,4.319 9.23925,12.719 13.12364,18.6666 3.88438,5.9477 7.68488,11.5386 8.44553,12.4243 0.76067,0.8857 1.40211,2.3857 1.42543,3.3333 0.0233,0.9477 0.92333,2.8877 2,4.3112 1.07668,1.4234 1.9576,3.6734 1.9576,5 0,1.3265 0.54016,2.4118 1.20034,2.4118 0.66019,0 1.92004,3 2.79966,6.6666 0.87961,3.6667 2.13946,6.6667 2.79965,6.6667 0.66019,0 1.20035,1.461 1.20035,3.2465 0,1.7856 0.66121,4.9356 1.46936,7 1.94021,4.9563 5.99204,24.9216 7.93241,39.0868 2.0086,14.6633 2.02569,53.2967 0.0304,68.6667 -1.76,13.5576 -4.68025,27.7897 -7.52356,36.6667 -1.05699,3.3 -1.91883,7.35 -1.9152,9 0.004,1.65 -0.56621,3 -1.26632,3 -0.70009,0 -1.67755,2.25 -2.17211,5 -0.49454,2.75 -1.65334,6.5 -2.57509,8.3333 -0.92175,1.8333 -3.55888,7.2333 -5.86031,12 -2.30141,4.7667 -6.85166,12.8667 -10.11168,18 -3.26,5.1333 -6.54398,10.5333 -7.29773,12 -1.88919,3.676 -4.33735,7.3411 -6.71016,10.0456 -1.1,1.2537 -4.1,4.8907 -6.66667,8.0821 -30.52145,37.9504 -74.30462,71.76303 -125.33333,96.79163 -19.72099,9.6728 -24.57759,11.7772 -43.33333,18.7769 -20.41708,7.6197 -55.70795,17.8266 -70,20.2457 -4.03334,0.6827 -13.03334,2.4487 -20,3.9246 -6.96667,1.4758 -21.06667,3.6483 -31.33334,4.8278 -10.26666,1.1795 -22.86666,2.753 -28,3.4968 -12.01929,1.7414 -120.19534,2.591 -142,1.1152 z m 623.37096,-0.062 c -9.467,-1.5827 -17.7217,-5.0095 -20.0399,-8.3192 -1.7578,-2.5095 -1.9978,-33.2608 -1.9978,-255.97653 0,-171.0582 0.4451,-253.95599 1.3729,-255.68952 3.7418,-6.99157 20.9607,-10.48391 51.9605,-10.53857 30.1544,-0.0532 44.8275,2.47029 51.1548,8.79757 l 3.5118,3.51183 -0.03,253.48489 c -0.028,238.15923 -0.1689,253.65673 -2.3333,256.32873 -3.3227,4.102 -7.1174,5.7243 -18.4714,7.8966 -11.0579,2.1158 -53.5223,2.4445 -65.1279,0.5042 z m 226.629,0.6467 c -1.4667,-0.3353 -6.1854,-1.2946 -10.4861,-2.1318 -4.5581,-0.8873 -9.424,-2.8724 -11.6666,-4.7594 l -3.8473,-3.2369 V 822.28117 573.97211 l 3.6667,-7.21925 c 3.0312,-5.96824 4.906,-7.8581 10.8189,-10.90576 l 7.1522,-3.6865 h 91.0398 c 53.7749,0 96.6917,0.57175 104.8477,1.3968 27.2336,2.75492 49.9947,8.69174 71.3967,18.62252 14.8825,6.90566 24.5172,13.50448 36.7864,25.19507 25.8425,24.62398 38.2388,56.86428 38.2388,99.45228 0,49.3263 -17.3121,86.8176 -51.9959,112.6028 -11.2368,8.3538 -27.0556,16.9053 -39.6576,21.4383 l -8.3729,3.0118 9.0396,5.365 c 11.2068,6.6513 29.7817,25.0751 38.2159,37.9048 11.0066,16.7431 18.5324,32.6414 45.9765,97.1256 30.2159,70.99723 33.5139,79.89833 33.5139,90.45353 0,14.8508 -4.2722,16.0935 -55.3334,16.0962 -41.1872,0 -48.2778,-0.8461 -54.349,-6.5015 -1.9286,-1.7965 -12.2194,-25.7122 -28.1827,-65.4965 -26.0497,-64.92183 -40.5908,-97.27893 -49.8321,-110.88743 -2.9582,-4.356 -9.0079,-11.2803 -13.4439,-15.3872 -15.3788,-14.2382 -29.0176,-18.3323 -61.1923,-18.3689 l -20.3333,-0.023 v 101.979 101.97903 l -3.6971,4.1377 c -5.9982,6.7133 -14.0324,8.1953 -46.9696,8.6641 -15.7666,0.2244 -29.8666,0.1336 -31.3333,-0.2017 z m 166,-301.10033 c 15.2256,-3.601 30.6712,-11.5561 39.8037,-20.5006 30.1548,-29.5339 25.882,-89.0256 -7.9268,-110.3682 -16.9386,-10.6929 -35.9084,-13.9036 -82.2102,-13.9144 l -33.6667,-0.01 v 74.1246 74.1247 l 37,-0.5466 c 29.3248,-0.4332 39.0744,-1.0371 47,-2.9116 z m 300.6667,301.01833 c -8.8832,-1.3399 -17.619,-4.5653 -20.4091,-7.5352 l -2.9523,-3.1426 0.3474,-245.89913 0.3473,-245.89917 3.6208,-6.86509 c 4.3749,-8.29501 11.4369,-14.3862 19.9621,-17.21781 5.4579,-1.8128 13.8564,-2.03692 60.709,-1.62003 50.9094,0.45297 54.9028,0.66151 62.6604,3.27204 11.7021,3.93793 19.0269,8.5746 26.5369,16.79796 7.7912,8.53132 11.9575,16.72965 19.5973,38.56235 16.5802,47.38165 113.6034,313.07055 114.3259,313.07055 0.7072,0 109.7303,-287.8471 120.696,-318.66663 7.9729,-22.40811 16.8603,-35.9459 28.8793,-43.99066 12.892,-8.62906 18.7143,-9.34268 76.2255,-9.34268 46.7016,0 50.4915,0.17635 57.1245,2.6581 7.4379,2.78286 15.2194,9.72392 18.7244,16.70213 4.821,9.59776 4.9379,15.69679 4.9379,257.61754 0,206.01063 -0.2607,238.32543 -1.9488,241.58983 -4.2615,8.2409 -20.7596,11.321 -55.8265,10.4226 -27.3934,-0.7019 -36.8647,-2.4709 -41.6727,-7.7834 -2.4857,-2.7467 -2.5693,-8.4211 -3.2187,-218.71423 l -0.6666,-215.8945 -76.3746,214.3677 c -42.0058,117.9022 -77.4398,215.82643 -78.7421,217.60943 -6.4733,8.8629 -18.9,11.1952 -55.5419,10.4243 -31.5624,-0.664 -39.1457,-2.1952 -46.6422,-9.4178 -4.0402,-3.8925 -10.5366,-22.0827 -77.5543,-217.15713 l -73.1449,-212.9084 -0.6667,213.8016 -0.6667,213.80153 -3.255,3.4646 c -5.8643,6.2419 -13.9642,7.7368 -44.0783,8.1348 -15.0333,0.1986 -29.1333,0.09 -31.3333,-0.2422 z M 2852.7469,960.16057 c 0,-24.2 0.4367,-44 0.9706,-44 0.5337,0 5.6681,4.65 11.4098,10.3334 l 10.4392,10.3333 3.209,-3.6853 c 4.3942,-5.0466 13.3314,-20.5555 19.327,-33.5387 19.8008,-42.8777 24.1792,-94.6751 12.0126,-142.1093 -9.5746,-37.3286 -29.3875,-70.8598 -58.4028,-98.8405 -57.217,-55.17665 -137.934,-73.46635 -213.4894,-48.3746 -20.4586,6.7943 -45.5885,19.9046 -60.5374,31.5826 -2.7839,2.1747 -5.4479,3.5676 -5.9202,3.0953 -0.4722,-0.4722 -0.7565,-8.4945 -0.6318,-17.8274 0.124,-9.3328 -0.1014,-18.01877 -0.5032,-19.3021 -0.6456,-2.06432 -2.7178,-2.33333 -17.9732,-2.33333 -13.5188,0 -17.2435,-0.38571 -17.2435,-1.78568 0,-1.77896 13.7877,-12.21163 28.2989,-21.41284 23.6944,-15.02398 61.1108,-29.39834 93.0344,-35.74127 13.6143,-2.70503 19.1452,-3.04051 49.3334,-2.99236 31.8428,0.0508 35.0868,0.28515 51.1298,3.69385 53,11.26108 96.4203,33.83287 134.1488,69.73653 39.9384,38.0065 66.5046,86.8594 78.2174,143.8351 3.6314,17.6651 3.8338,20.4195 3.7721,51.3333 -0.06,30.1558 -0.3379,33.9478 -3.6107,49.3334 -8.7542,41.1538 -23.1096,75.0388 -44.3054,104.5815 -4.0436,5.636 -7.352,10.974 -7.352,11.8623 0,0.8883 5.1,6.6886 11.3333,12.8895 6.2333,6.201 11.3333,11.73773 11.3333,12.30393 0,0.5662 -19.8,1.0294 -44,1.0294 h -44 z M 931.13051,302.55883 c -2.2968,-3.50537 -11.72808,-13.02933 -17.9642,-18.14076 -2.06396,-1.69172 -11.73471,-7.00976 -21.49052,-11.81787 -13.08854,-6.4506 -20.60244,-9.28304 -28.66667,-10.80617 l -10.92881,-2.06419 -5.10755,-11.72133 C 827.75308,203.9012 790.21007,162.67106 742.25691,133.00845 677.13224,92.723983 599.24913,70.328333 498.74697,62.986053 c -20.92498,-1.52869 -91.77162,-1.50909 -111.33333,0.0308 -25.57224,2.01305 -57.88029,6.30872 -79.79293,10.60925 -107.67944,21.13297 -195.45004,75.591837 -235.720299,146.256967 -3.20106,5.61713 -5.820108,9.12007 -5.820108,7.78431 0,-1.33576 0.823585,-4.02124 1.830189,-5.96772 1.006605,-1.94648 4.407356,-8.93906 7.557227,-15.53906 3.149869,-6.6 6.145414,-12.3 6.656768,-12.66666 0.511353,-0.36667 1.351034,-2.01667 1.865957,-3.66667 0.514924,-1.65 1.495793,-3 2.179709,-3 0.683915,0 1.252615,-0.75 1.263776,-1.66667 0.02773,-2.278 17.004351,-23.72568 27.176041,-34.33333 8.0054,-8.34849 21.80528,-21.39703 29.28458,-27.69013 5.29588,-4.45598 36.97686,-26.585757 40.85242,-28.536207 1.83334,-0.92266 4.83334,-2.6737 6.66667,-3.89121 10.39544,-6.90354 40.15941,-21.01943 62.66667,-29.72036 16.3306,-6.31313 48.27138,-15.76889 66,-19.53866 48.97534,-10.41398 87.42614,-14.5836 143.33333,-15.54313 115.62709,-1.98449 212.1064,15.19429 290.33689,51.6964 4.5853,2.13948 8.54164,3.88997 8.7919,3.88997 0.25026,0 7.89865,4.07588 16.99645,9.05752 16.20307,8.87225 41.76559,25.292497 50.05228,32.151407 2.29763,1.90175 6.15176,4.95773 8.56473,6.79107 4.86876,3.69919 31.05943,29.43457 35.27996,34.66666 10.42582,12.92463 17.62884,22.29366 18.45148,24 1.11903,2.32108 2.8415,5.15446 7.88688,12.97351 2.00168,3.10209 3.642,6.10209 3.64514,6.66667 0.003,0.56457 1.80057,3.72649 3.99429,7.02649 2.19372,3.3 3.99115,6.9582 3.99429,8.12932 0.003,1.17112 1.20571,3.51293 2.67238,5.20401 1.46666,1.69108 2.66666,4.36822 2.66666,5.94918 0,1.58096 0.88092,4.03916 1.9576,5.46265 1.07667,1.42349 1.97667,3.69749 2,5.05333 0.0233,1.35584 0.87344,4.35584 1.88916,6.66667 3.54686,8.06931 12.34495,49.62637 11.22059,52.99948 -0.29481,0.88444 -1.46303,0.13013 -2.68381,-1.73308 z"
     id="path3724"
     inkscape:connector-curvature="0" />
</svg>
