<?xml version="1.0" standalone="no"?>
<!DOCTYPE svg PUBLIC "-//W3C//DTD SVG 20010904//EN"
 "http://www.w3.org/TR/2001/REC-SVG-20010904/DTD/svg10.dtd">
<svg version="1.0" xmlns="http://www.w3.org/2000/svg"
 width="2255.000000pt" height="834.000000pt" viewBox="0 0 2255.000000 834.000000"
 preserveAspectRatio="xMidYMid meet">
<metadata>
Created by potrace 1.15, written by Peter Selinger 2001-2017
</metadata>
<g transform="translate(0.000000,834.000000) scale(0.100000,-0.100000)"
fill="#000000" stroke="none">
<path d="M4 8329 c-2 -4 -3 -1876 -1 -4160 l2 -4154 11268 -3 11267 -2 0 3507
c0 1930 3 3802 6 4160 l7 653 -11273 2 c-6199 2 -11274 0 -11276 -3z m22511
-28 c6 -6 9 -1542 7 -4141 l-2 -4130 -11237 0 c-8176 0 -11240 3 -11250 11
-11 10 -13 718 -13 4140 l0 4129 11243 0 c7087 0 11247 -4 11252 -9z"/>
<path d="M5080 7379 c-234 -4 -447 -12 -475 -17 -27 -6 -71 -11 -97 -11 -25
-1 -104 -13 -175 -27 -70 -14 -147 -26 -169 -27 -23 -1 -40 -5 -38 -8 6 -11
-173 -52 -187 -43 -8 4 -10 3 -5 -4 7 -11 -7 -16 -41 -15 -7 1 -10 -4 -6 -10
4 -6 -2 -8 -16 -4 -13 3 -20 3 -17 -1 9 -9 -92 -44 -131 -46 -17 0 -29 -4 -27
-8 2 -3 -17 -16 -43 -28 -27 -12 -58 -26 -70 -32 -11 -6 -26 -7 -32 -4 -6 4
-11 2 -11 -4 0 -6 -4 -8 -10 -5 -5 3 -10 1 -10 -6 0 -7 -3 -9 -7 -6 -3 4 -12
-1 -20 -11 -10 -11 -12 -12 -8 -2 4 10 2 9 -8 -2 -8 -10 -17 -15 -20 -11 -4 3
-7 1 -7 -6 0 -7 -4 -9 -10 -6 -5 3 -10 1 -10 -6 0 -7 -3 -9 -7 -6 -3 4 -12 -1
-20 -11 -10 -11 -12 -12 -8 -2 4 8 -1 6 -9 -4 -9 -11 -16 -16 -16 -11 0 5 -7
0 -16 -11 -8 -10 -13 -12 -9 -4 4 8 -3 4 -15 -10 -12 -14 -19 -18 -15 -10 4 8
-1 6 -9 -4 -9 -11 -16 -16 -16 -12 0 5 -8 0 -17 -11 -10 -10 -16 -14 -13 -8 3
6 -6 -1 -19 -15 -13 -14 -20 -18 -16 -10 4 8 -5 1 -21 -16 -16 -16 -24 -23
-19 -14 6 9 -3 2 -19 -14 -16 -17 -25 -24 -21 -16 4 8 -7 -1 -26 -21 -19 -19
-25 -24 -14 -10 11 14 -36 -31 -105 -100 -100 -100 -106 -105 -30 -25 l95 101
-102 -99 c-56 -54 -99 -104 -97 -111 3 -6 -3 -18 -13 -26 -17 -13 -17 -13 -3
6 14 18 14 19 -2 7 -9 -8 -15 -19 -12 -26 3 -7 -3 -19 -13 -27 -17 -13 -17
-13 -3 6 14 18 14 19 -2 7 -9 -8 -15 -19 -12 -26 3 -7 -3 -19 -13 -27 -17 -13
-17 -13 -3 6 14 18 14 19 -2 7 -9 -8 -15 -19 -12 -27 3 -7 0 -16 -7 -21 -8 -5
-10 -3 -4 6 5 8 4 11 -3 6 -6 -4 -9 -12 -6 -19 2 -7 -3 -21 -12 -32 -8 -11
-12 -14 -8 -6 4 9 3 12 -4 7 -6 -4 -8 -14 -5 -23 4 -11 3 -14 -5 -9 -8 5 -10
1 -5 -10 4 -12 3 -15 -5 -10 -8 5 -10 1 -5 -10 4 -12 3 -15 -5 -10 -8 5 -10 1
-5 -10 4 -12 3 -15 -5 -10 -8 5 -10 1 -5 -10 4 -12 3 -15 -5 -10 -8 5 -10 1
-5 -10 5 -13 3 -15 -8 -9 -8 4 -11 5 -7 0 4 -4 2 -15 -5 -23 -9 -13 -9 -14 0
-8 9 5 11 2 7 -8 -3 -9 -9 -14 -13 -11 -4 2 -7 -5 -6 -17 1 -12 9 -22 18 -24
10 -1 15 2 11 7 -3 5 0 9 6 9 6 0 8 5 5 10 -3 6 -1 10 6 10 7 0 9 3 6 7 -4 3
1 12 11 20 11 10 12 12 2 8 -8 -4 -6 1 4 9 11 9 16 16 11 16 -5 0 0 7 11 16
10 8 12 12 4 9 -8 -4 -4 3 10 16 14 13 19 20 10 15 -8 -5 1 6 21 25 19 19 26
27 15 19 -12 -8 9 15 45 50 36 36 47 49 24 30 -23 -19 -12 -6 24 30 36 35 55
55 41 45 l-25 -20 19 23 c11 12 25 21 32 18 6 -2 27 12 45 32 l34 37 -40 -35
-40 -35 35 38 c19 20 40 35 46 33 7 -3 18 3 26 12 12 16 11 16 -7 2 -19 -14
-19 -14 -6 3 8 10 20 16 27 13 7 -2 20 5 31 17 18 22 18 22 -3 7 -11 -8 -6 -3
10 13 17 15 36 25 43 23 7 -3 15 0 19 6 5 7 2 8 -6 3 -9 -6 -11 -4 -6 4 5 7
14 10 22 7 7 -3 16 0 20 6 5 7 2 8 -6 3 -9 -6 -11 -4 -6 4 5 7 14 10 22 7 7
-3 16 0 20 6 5 7 2 8 -6 3 -9 -6 -11 -4 -6 4 5 7 14 10 22 7 7 -3 16 0 20 6 5
7 2 8 -7 4 -8 -4 -5 0 6 8 11 9 25 14 32 12 7 -3 15 0 19 6 5 7 2 8 -7 4 -8
-4 -5 0 6 8 11 9 25 14 33 11 8 -3 10 0 6 7 -5 8 -2 9 10 5 11 -5 15 -3 10 5
-5 8 -2 9 10 5 11 -5 15 -3 10 5 -5 8 -2 9 9 5 9 -3 19 -1 23 5 5 7 2 8 -6 3
-9 -6 -11 -4 -5 4 4 7 16 11 26 8 12 -3 17 -1 12 6 -4 7 0 8 11 4 9 -4 14 -3
11 2 -7 12 31 24 46 15 8 -5 9 -3 4 6 -6 10 -4 12 9 7 11 -5 15 -3 10 5 -5 8
-2 9 10 5 11 -5 15 -3 10 5 -5 8 -2 9 10 5 9 -4 14 -3 11 2 -7 12 31 24 46 15
8 -5 9 -3 4 6 -6 10 -3 12 13 8 14 -4 20 -2 15 5 -4 6 2 8 15 5 14 -4 20 -2
15 5 -4 6 2 8 15 5 14 -4 20 -2 15 5 -4 6 2 8 15 5 14 -4 20 -2 15 5 -4 7 0 8
11 4 11 -5 15 -3 10 5 -5 7 0 9 14 6 14 -4 20 -2 16 4 -5 7 2 9 19 6 16 -3 24
-1 20 5 -4 6 4 8 20 5 16 -3 24 -1 20 5 -4 6 2 8 15 5 14 -4 20 -2 16 4 -5 7
4 9 24 6 18 -3 29 0 25 5 -4 6 5 8 20 5 16 -3 24 -1 20 5 -3 6 6 8 25 5 18 -3
29 0 25 5 -4 6 5 8 20 5 16 -3 24 -1 20 5 -4 6 4 8 20 5 16 -3 24 -1 20 5 -3
6 8 8 30 5 20 -2 33 0 30 5 -3 5 14 8 40 6 25 -2 43 0 40 5 -3 4 13 7 35 4 22
-2 38 1 35 5 -3 5 22 7 55 5 33 -1 58 1 55 5 -3 5 19 7 50 5 30 -1 53 1 50 5
-3 5 33 7 80 5 47 -2 83 0 80 5 -2 4 75 7 171 7 111 0 176 -4 176 -10 0 -5 5
-10 11 -10 5 0 8 3 6 8 -3 4 38 6 91 4 53 -2 91 -7 84 -11 -6 -4 19 -5 56 -3
40 2 62 0 54 -6 -7 -5 13 -7 50 -4 41 2 58 0 50 -6 -9 -6 5 -8 40 -5 34 3 48
1 40 -5 -9 -6 5 -8 40 -5 36 3 49 1 39 -5 -9 -7 2 -8 35 -5 37 3 45 2 34 -6
-11 -8 -7 -10 20 -5 27 4 31 3 20 -5 -11 -8 -7 -10 20 -5 26 4 31 3 20 -5 -11
-8 -5 -9 25 -5 30 4 36 3 25 -5 -11 -8 -7 -10 20 -5 26 4 31 3 20 -5 -11 -8
-5 -9 25 -5 30 4 36 3 25 -5 -11 -8 -7 -10 20 -5 27 4 31 3 20 -5 -11 -8 -7
-10 20 -5 21 3 30 2 23 -3 -7 -5 2 -9 25 -9 20 0 53 -8 72 -17 23 -11 26 -15
10 -11 -14 4 -22 3 -18 -1 4 -4 27 -9 50 -10 53 -2 264 -86 406 -161 182 -96
370 -231 477 -345 38 -40 32 -36 -25 17 -144 133 -314 251 -497 343 -129 64
-112 48 23 -23 225 -118 406 -252 526 -389 83 -97 94 -108 83 -87 -8 13 -7 13
8 1 18 -15 23 -26 7 -16 -17 10 -11 -12 7 -26 15 -12 16 -12 8 1 -8 13 -7 13
8 1 18 -15 23 -26 7 -16 -13 8 -13 -1 1 -26 5 -11 14 -17 19 -14 5 3 12 0 16
-6 5 -8 3 -9 -6 -4 -8 5 -11 3 -8 -6 3 -8 10 -14 15 -14 6 0 15 -4 20 -9 5 -5
3 -6 -4 -2 -21 12 -15 -4 45 -119 l57 -109 55 -1 c56 -1 150 -32 186 -60 11
-10 2 -8 -23 5 -58 28 -68 25 -13 -4 24 -13 50 -22 56 -19 22 8 93 -37 156
-98 l63 -61 -63 56 c-58 51 -129 97 -149 96 -4 -1 14 -13 42 -27 27 -14 76
-53 110 -86 68 -69 91 -78 90 -35 0 15 -4 28 -9 28 -4 0 -6 9 -3 20 3 11 1 20
-5 20 -6 0 -8 9 -5 20 3 11 1 20 -5 20 -5 0 -8 16 -6 35 1 23 -3 39 -11 44 -8
5 -12 18 -8 30 3 12 1 21 -4 21 -5 0 -9 4 -9 10 0 5 8 7 18 4 9 -2 7 1 -5 7
-27 14 -31 31 -5 23 9 -2 7 1 -6 8 -15 7 -22 18 -19 30 3 10 1 18 -4 18 -5 0
-9 4 -9 10 0 5 8 7 18 4 9 -3 6 1 -7 9 -23 14 -24 15 -5 20 17 4 16 5 -3 6
-13 0 -23 5 -23 11 0 5 8 7 18 4 9 -3 6 1 -7 9 -23 14 -24 15 -5 20 15 4 14 5
-6 7 -23 1 -23 2 -5 10 18 8 18 9 -5 10 -23 1 -23 2 -5 10 19 8 19 9 -2 9 -13
1 -23 5 -23 11 0 5 8 7 18 4 9 -4 4 3 -13 15 -26 18 -27 21 -10 22 17 1 16 2
-5 9 -21 7 -22 8 -5 10 16 1 15 3 -7 12 -30 10 -40 31 -10 21 9 -3 2 6 -17 21
-29 21 -31 26 -15 27 15 1 14 3 -6 9 -21 7 -22 8 -5 9 16 2 14 5 -10 16 -24
11 -26 14 -10 15 16 1 14 4 -10 15 -24 11 -26 14 -10 14 15 1 12 5 -14 18 -29
15 -31 18 -15 24 11 4 13 8 5 8 -7 1 -26 12 -43 26 -24 20 -26 25 -11 26 14 0
15 2 3 6 -8 3 -29 18 -47 34 -27 23 -29 28 -15 32 10 3 6 5 -10 6 -15 0 -30 6
-34 13 -5 8 -2 9 9 5 30 -12 18 8 -14 22 -17 7 -49 33 -71 57 -22 24 -46 44
-53 44 -7 0 -15 7 -19 15 -3 8 -11 15 -18 15 -7 0 -19 9 -26 20 -7 11 -19 20
-27 20 -8 0 -15 5 -15 10 0 6 -7 10 -15 10 -8 0 -15 5 -15 10 0 6 -7 10 -15
10 -8 0 -15 5 -15 10 0 6 -7 10 -15 10 -8 0 -15 4 -15 10 0 5 -22 19 -50 31
-27 12 -50 25 -50 30 0 5 -7 9 -15 9 -8 0 -15 4 -15 8 0 5 -19 15 -41 22 -23
8 -47 19 -53 25 -11 11 -161 77 -203 90 -13 3 -23 11 -23 16 0 5 -7 9 -15 9
-27 0 -264 83 -260 90 3 5 -5 6 -17 2 -12 -3 -19 -1 -15 5 4 5 -6 8 -25 5 -19
-3 -28 -1 -25 5 4 6 -4 8 -20 5 -16 -3 -24 -1 -20 5 4 6 -4 8 -20 5 -16 -3
-24 -1 -20 5 4 6 -4 8 -20 5 -16 -3 -24 -1 -20 5 4 6 -4 8 -20 5 -15 -3 -24
-1 -20 5 4 5 -7 8 -25 5 -17 -3 -28 -1 -25 4 3 5 -13 8 -35 6 -24 -3 -38 0
-35 5 3 5 -7 7 -25 5 -18 -3 -28 -1 -25 5 4 5 -7 8 -25 5 -17 -3 -28 -1 -25 5
3 5 -10 7 -30 5 -20 -3 -33 -1 -30 4 3 5 -29 8 -70 6 -41 -2 -73 0 -70 5 3 5
-13 7 -35 5 -22 -3 -38 0 -35 4 3 5 -20 7 -50 6 -39 -3 -53 -1 -49 7 4 6 6 10
4 9 -2 -1 -194 -5 -428 -9z"/>
<path d="M3556 6110 c-8 -8 -12 -20 -9 -26 2 -6 -7 -19 -19 -30 l-23 -19 20
25 20 25 -22 -18 c-12 -11 -19 -24 -17 -31 3 -7 -3 -19 -13 -27 -17 -13 -17
-13 -3 6 14 18 14 19 -2 7 -9 -8 -15 -19 -12 -26 2 -6 -3 -20 -12 -31 -8 -11
-12 -14 -8 -6 4 9 3 12 -4 7 -6 -4 -8 -14 -5 -23 4 -11 3 -14 -5 -9 -8 5 -10
1 -5 -10 4 -11 3 -15 -4 -11 -7 5 -9 -1 -5 -15 3 -13 1 -19 -5 -15 -7 5 -9 -1
-5 -15 3 -13 1 -19 -5 -15 -7 5 -9 -1 -5 -15 3 -12 1 -19 -5 -15 -5 4 -8 -6
-5 -25 3 -17 1 -28 -5 -25 -5 3 -7 -10 -5 -30 3 -20 1 -33 -4 -30 -5 3 -7 -29
-4 -73 3 -43 2 -76 -2 -73 -5 2 -8 -1 -8 -6 0 -6 4 -11 9 -11 5 0 11 -11 13
-25 3 -13 1 -22 -3 -19 -5 3 -9 0 -9 -5 0 -6 4 -11 9 -11 5 0 11 -9 14 -20 3
-11 1 -18 -4 -14 -16 10 -9 -8 9 -23 9 -8 11 -12 5 -8 -19 9 -16 -6 5 -22 9
-8 11 -12 5 -8 -7 3 -13 3 -13 0 0 -13 40 -84 51 -91 8 -4 9 -3 5 4 -11 18 0
14 15 -5 10 -11 10 -14 2 -9 -22 12 -14 -10 9 -30 22 -19 23 -19 8 1 -15 20
-14 20 8 1 23 -20 30 -32 11 -20 -7 4 -10 1 -7 -7 3 -8 11 -13 17 -12 6 2 10
-2 8 -8 -1 -6 4 -14 12 -17 9 -3 11 0 6 9 -5 8 6 1 23 -15 39 -36 43 -49 5
-15 -27 23 -27 23 1 -9 29 -31 54 -44 40 -19 -4 7 -3 9 2 4 5 -5 9 -14 9 -20
0 -5 6 -12 14 -15 9 -3 11 0 6 9 -5 8 -4 11 1 6 5 -5 9 -14 9 -20 0 -5 6 -12
14 -15 9 -3 11 0 6 8 -5 9 -4 11 4 6 6 -4 9 -11 6 -16 -3 -5 12 -18 34 -30 47
-23 55 -25 46 -7 -4 6 -1 5 7 -4 12 -15 70 -49 83 -49 3 0 3 6 0 13 -4 6 0 4
8 -5 16 -21 31 -24 22 -5 -4 6 0 4 8 -5 16 -21 31 -24 22 -5 -4 6 0 4 8 -5 16
-21 31 -24 22 -5 -4 6 0 4 8 -5 16 -21 31 -24 22 -5 -4 6 0 4 8 -5 16 -21 32
-24 21 -5 -4 6 3 2 15 -10 23 -25 46 -31 36 -10 -4 6 0 4 8 -5 15 -19 32 -25
22 -8 -3 6 1 7 9 4 9 -3 16 -10 16 -15 0 -5 5 -9 11 -9 5 0 7 4 4 10 -3 6 1 7
9 4 9 -3 16 -10 16 -15 0 -5 5 -9 11 -9 5 0 7 6 4 13 -4 6 0 4 8 -5 15 -19 32
-25 22 -8 -3 6 1 7 9 4 9 -3 16 -10 16 -15 0 -5 5 -9 11 -9 5 0 7 4 4 10 -3 6
1 7 9 4 9 -3 16 -10 16 -15 0 -5 5 -9 11 -9 5 0 7 6 4 13 -4 6 0 4 8 -5 15
-19 32 -25 22 -8 -3 6 1 7 9 4 9 -3 16 -10 16 -15 0 -5 5 -9 11 -9 5 0 8 4 5
9 -4 5 3 7 14 4 11 -3 20 -9 20 -14 0 -5 5 -9 11 -9 5 0 7 4 4 10 -3 6 1 7 9
4 9 -3 16 -10 16 -15 0 -5 5 -9 11 -9 5 0 7 4 4 10 -3 6 1 7 9 4 9 -3 16 -10
16 -15 0 -5 5 -9 11 -9 5 0 7 4 4 10 -3 6 1 7 9 4 9 -3 16 -10 16 -15 0 -5 5
-9 11 -9 5 0 8 4 5 9 -3 4 6 6 19 3 14 -2 25 -8 25 -13 0 -5 5 -9 11 -9 5 0 7
4 4 10 -3 6 1 7 9 4 9 -3 16 -10 16 -15 0 -5 5 -9 11 -9 5 0 7 4 4 10 -3 6 1
7 9 4 9 -3 16 -10 16 -15 0 -5 5 -9 11 -9 5 0 8 4 5 9 -3 4 6 6 19 3 14 -2 25
-8 25 -13 0 -5 5 -9 11 -9 5 0 8 4 5 9 -4 5 3 7 14 4 11 -3 20 -9 20 -14 0 -5
5 -9 11 -9 5 0 8 4 5 9 -4 5 3 7 14 4 11 -3 20 -9 20 -14 0 -5 5 -9 11 -9 5 0
7 4 4 10 -3 6 1 7 9 4 9 -3 16 -10 16 -15 0 -5 5 -9 11 -9 5 0 8 4 5 9 -4 5 3
7 14 4 11 -3 20 -9 20 -14 0 -5 5 -9 11 -9 5 0 8 4 5 9 -3 4 6 6 19 3 14 -2
25 -8 25 -13 0 -5 5 -9 11 -9 5 0 8 4 5 9 -4 5 3 7 14 4 11 -3 20 -9 20 -14 0
-5 5 -9 11 -9 5 0 8 4 5 9 -3 4 6 6 19 3 14 -2 25 -8 25 -13 0 -5 5 -9 11 -9
5 0 8 4 5 9 -3 4 6 6 19 3 14 -2 25 -8 25 -13 0 -5 5 -9 11 -9 5 0 7 4 4 10
-3 6 1 7 9 4 9 -3 16 -10 16 -15 0 -5 5 -9 11 -9 5 0 8 4 5 9 -4 5 3 7 14 4
11 -3 20 -9 20 -14 0 -5 5 -9 11 -9 5 0 7 4 4 10 -3 6 1 7 9 4 9 -3 16 -10 16
-15 0 -5 5 -9 11 -9 5 0 8 4 5 9 -4 5 3 7 14 4 11 -3 20 -9 20 -14 0 -5 5 -9
11 -9 5 0 8 4 5 9 -4 5 3 7 14 4 11 -3 20 -9 20 -14 0 -5 5 -9 11 -9 5 0 8 4
5 8 -3 5 9 6 26 4 21 -3 26 -7 17 -13 -8 -5 3 -6 26 -3 31 4 37 3 25 -6 -12
-9 -11 -10 8 -5 33 10 100 -4 81 -16 -9 -6 -2 -7 21 -3 27 4 31 3 20 -5 -11
-8 -7 -10 20 -5 27 4 31 3 20 -5 -11 -8 -7 -10 20 -5 26 4 31 3 20 -5 -11 -8
-5 -9 25 -5 30 4 36 3 25 -5 -11 -8 -5 -9 25 -5 30 4 36 3 25 -5 -11 -8 -7
-10 20 -5 27 4 31 3 20 -5 -11 -8 -7 -10 20 -5 27 4 31 3 20 -5 -11 -8 -7 -10
20 -5 28 4 32 3 20 -6 -12 -9 -11 -10 7 -5 29 8 109 -15 91 -26 -7 -5 5 -6 27
-3 30 4 36 3 25 -5 -11 -8 -7 -10 20 -5 27 4 31 3 20 -5 -11 -8 -7 -10 20 -5
28 4 32 3 20 -6 -12 -9 -11 -10 7 -5 29 8 168 -36 150 -47 -6 -4 4 -5 23 -2
27 4 32 3 20 -5 -12 -9 -10 -10 10 -6 48 11 354 -120 539 -230 112 -67 269
-187 366 -280 70 -66 66 -64 -28 19 -60 52 -149 123 -198 158 -93 66 -297 187
-314 188 -5 0 40 -28 100 -63 190 -108 334 -215 458 -340 38 -37 66 -63 62
-58 -10 17 1 13 16 -6 10 -11 10 -14 2 -9 -19 11 -16 -9 4 -25 11 -10 14 -10
9 -1 -11 18 -1 15 15 -5 12 -14 12 -16 0 -9 -9 6 -12 4 -9 -5 3 -8 10 -14 15
-14 6 0 15 -4 20 -9 5 -5 2 -6 -6 -1 -9 5 -12 3 -9 -6 3 -8 10 -14 15 -14 6 0
15 -4 20 -9 5 -5 2 -6 -6 -1 -9 5 -12 3 -9 -6 3 -8 10 -14 15 -14 6 0 15 -4
20 -9 5 -5 3 -6 -4 -2 -7 4 -13 4 -13 1 0 -14 44 -91 59 -103 9 -8 10 -11 4
-7 -7 3 -13 3 -13 0 0 -13 34 -71 49 -83 9 -8 10 -11 4 -7 -19 9 -16 -6 5 -22
9 -8 11 -12 5 -8 -7 3 -13 1 -13 -4 0 -6 4 -11 9 -11 5 0 12 -7 15 -16 3 -8 2
-12 -4 -9 -6 3 -10 1 -10 -4 0 -6 4 -11 9 -11 5 0 12 -7 15 -16 3 -8 2 -12 -4
-9 -6 3 -10 1 -10 -4 0 -6 4 -11 9 -11 5 0 11 -11 13 -25 3 -13 1 -22 -3 -19
-5 3 -9 0 -9 -5 0 -6 4 -11 9 -11 5 0 12 -7 15 -16 3 -8 2 -12 -4 -9 -6 3 -10
1 -10 -4 0 -6 4 -11 9 -11 5 0 11 -13 13 -29 2 -17 1 -28 -4 -25 -4 3 -8 0 -8
-5 0 -6 4 -11 9 -11 5 0 11 -15 13 -34 2 -19 0 -32 -4 -30 -4 3 -8 0 -8 -5 0
-6 5 -11 10 -11 6 0 10 -35 10 -86 0 -47 -3 -83 -7 -81 -5 3 -6 -15 -4 -40 2
-25 -1 -43 -6 -40 -4 3 -7 -13 -5 -35 3 -25 1 -38 -5 -35 -6 4 -8 -4 -5 -20 3
-15 1 -24 -5 -20 -5 4 -8 -7 -5 -25 3 -18 1 -28 -5 -25 -5 4 -8 -7 -5 -25 3
-20 1 -29 -6 -24 -6 4 -8 -2 -4 -16 3 -13 1 -19 -5 -15 -7 5 -9 -1 -5 -15 3
-13 1 -19 -5 -15 -7 5 -9 -1 -5 -15 4 -16 2 -19 -8 -13 -9 5 -11 4 -6 -4 9
-15 -3 -53 -15 -46 -5 3 -6 -2 -2 -11 5 -13 3 -15 -7 -9 -9 5 -11 4 -6 -4 9
-15 -3 -53 -15 -46 -5 3 -6 -2 -2 -11 4 -12 3 -15 -5 -10 -7 4 -10 2 -7 -6 3
-8 -2 -22 -11 -33 -8 -11 -12 -14 -8 -6 4 9 3 12 -4 7 -6 -4 -8 -14 -5 -23 4
-11 3 -14 -5 -9 -7 4 -10 2 -7 -6 3 -8 -2 -22 -11 -33 -8 -11 -12 -14 -8 -6 4
9 3 12 -4 7 -6 -4 -9 -13 -6 -20 3 -8 0 -17 -7 -22 -8 -5 -10 -3 -4 6 5 8 4
11 -3 6 -6 -4 -9 -12 -7 -19 3 -7 -5 -23 -17 -37 -13 -14 -18 -19 -13 -10 9
13 8 13 -7 2 -9 -8 -15 -19 -12 -26 3 -7 -6 -21 -18 -32 l-23 -19 20 25 20 25
-22 -18 c-12 -11 -20 -24 -17 -30 6 -15 -201 -221 -213 -214 -6 4 -21 -6 -34
-21 l-24 -27 30 25 30 25 -25 -28 c-13 -15 -30 -25 -36 -23 -7 3 -18 -3 -26
-12 -11 -15 -11 -16 2 -7 9 6 4 0 -10 -13 -14 -12 -30 -20 -37 -18 -6 3 -17
-3 -25 -12 -11 -15 -11 -16 2 -7 9 6 4 0 -10 -13 -14 -12 -30 -20 -37 -17 -7
2 -15 -1 -19 -7 -5 -7 -2 -8 6 -3 9 6 11 4 6 -4 -5 -7 -14 -10 -22 -7 -7 3
-16 0 -20 -6 -5 -7 -2 -8 7 -4 8 4 5 0 -6 -8 -11 -9 -25 -14 -32 -12 -7 3 -15
0 -19 -6 -5 -7 -2 -8 7 -4 8 4 5 0 -6 -8 -11 -9 -25 -14 -32 -12 -7 3 -15 0
-19 -6 -5 -7 -2 -8 7 -4 8 4 5 0 -6 -8 -11 -9 -25 -14 -33 -11 -8 3 -10 0 -6
-7 5 -8 2 -9 -10 -5 -11 5 -15 3 -10 -5 5 -8 2 -9 -10 -5 -11 5 -15 3 -10 -5
5 -8 2 -9 -10 -5 -11 5 -15 3 -10 -5 5 -8 2 -9 -10 -5 -11 5 -15 3 -10 -5 5
-8 2 -9 -10 -5 -9 4 -14 3 -11 -2 7 -12 -31 -24 -46 -15 -8 5 -9 3 -4 -6 6
-10 4 -12 -9 -7 -9 4 -14 3 -11 -2 7 -12 -31 -24 -46 -15 -8 5 -9 3 -4 -6 6
-10 4 -12 -9 -7 -9 4 -14 3 -11 -2 7 -12 -31 -24 -46 -15 -8 5 -9 3 -4 -6 6
-10 4 -12 -9 -7 -11 5 -15 3 -10 -5 5 -7 -1 -9 -19 -6 -16 3 -24 1 -20 -5 4
-6 -2 -8 -15 -5 -14 4 -20 2 -15 -5 4 -6 -2 -8 -15 -5 -14 4 -20 2 -15 -5 4
-7 0 -8 -11 -4 -11 5 -15 3 -10 -5 5 -7 0 -9 -14 -6 -14 4 -20 2 -16 -4 5 -7
-2 -9 -19 -6 -16 3 -24 1 -20 -5 4 -6 -2 -8 -15 -5 -14 4 -20 2 -16 -4 5 -7
-2 -9 -19 -6 -16 3 -24 1 -20 -5 4 -6 -4 -8 -20 -5 -16 3 -24 1 -20 -5 3 -6
-6 -8 -25 -5 -18 3 -29 0 -25 -5 3 -6 -7 -8 -25 -5 -18 3 -29 0 -25 -5 4 -6
-5 -8 -20 -5 -16 3 -24 1 -20 -5 4 -6 -4 -8 -20 -5 -16 3 -24 1 -20 -5 3 -6
-8 -8 -30 -5 -20 2 -33 0 -30 -5 3 -6 -8 -8 -25 -5 -18 2 -28 0 -25 -5 3 -5
-16 -8 -45 -6 -27 2 -48 0 -45 -5 3 -4 -15 -7 -40 -5 -25 2 -43 0 -40 -4 3 -5
-26 -7 -65 -5 -39 1 -68 -1 -65 -5 3 -5 -33 -7 -80 -5 -47 2 -83 0 -80 -4 12
-20 -523 -3 -832 27 -222 21 -654 107 -675 134 -3 3 -18 7 -35 8 -16 1 -31 7
-33 12 -2 5 -10 7 -18 4 -8 -3 -22 3 -30 13 -9 11 -13 13 -9 7 9 -19 -6 -16
-22 5 -8 9 -12 11 -8 5 3 -7 1 -13 -4 -13 -6 0 -11 8 -11 18 0 14 -2 15 -10 2
-8 -12 -10 -12 -11 5 0 12 -3 15 -6 7 -4 -10 -9 -9 -20 5 -8 10 -12 12 -8 5 9
-18 -6 -15 -22 6 -8 9 -12 11 -8 5 3 -7 1 -13 -4 -13 -6 0 -11 8 -12 18 0 11
-2 12 -6 4 -4 -10 -9 -9 -20 5 -8 10 -12 12 -8 6 3 -7 1 -13 -4 -13 -6 0 -11
8 -11 18 0 14 -2 15 -10 2 -8 -12 -10 -12 -10 5 0 17 -2 17 -10 5 -8 -12 -10
-12 -10 5 0 17 -2 17 -10 5 -8 -12 -10 -12 -10 5 0 17 -2 17 -10 5 -8 -12 -10
-12 -10 5 0 17 -2 17 -10 5 -8 -12 -10 -12 -11 5 0 12 -3 15 -6 7 -4 -10 -9
-9 -20 5 -8 10 -12 12 -8 6 3 -7 1 -13 -4 -13 -6 0 -11 8 -11 18 0 13 -2 14
-9 3 -7 -11 -10 -9 -16 9 -6 18 -9 20 -16 9 -7 -11 -9 -9 -9 6 0 17 -2 17 -10
5 -8 -12 -10 -12 -10 5 0 15 -2 17 -9 6 -7 -11 -10 -9 -16 9 -6 18 -9 20 -16
9 -7 -11 -9 -9 -9 6 0 15 -2 17 -9 6 -7 -11 -10 -9 -16 9 -5 16 -9 19 -15 10
-6 -9 -10 -6 -15 10 -6 18 -9 20 -16 9 -7 -11 -9 -9 -10 6 0 12 -3 15 -6 7 -4
-10 -11 -5 -24 15 -11 16 -19 22 -19 13 0 -8 -9 -2 -20 15 -11 17 -20 24 -20
15 -1 -9 -6 -5 -15 10 -8 14 -14 19 -15 12 0 -8 -16 5 -35 28 -19 23 -35 37
-35 31 0 -7 -20 11 -45 39 -25 28 -45 46 -45 40 0 -5 -9 -1 -20 10 -11 11 -20
24 -20 29 0 4 -25 32 -55 60 -30 29 -55 56 -55 61 0 6 -9 15 -20 22 -11 7 -20
19 -20 26 0 7 -7 15 -15 18 -8 4 -15 13 -15 20 0 8 -7 17 -15 20 -8 4 -15 12
-15 20 0 8 -4 14 -10 14 -5 0 -12 11 -16 25 -3 14 -10 25 -15 25 -5 0 -9 7 -9
15 0 8 -4 15 -10 15 -5 0 -12 11 -16 25 -3 14 -10 25 -14 25 -5 0 -12 10 -16
23 -3 12 -20 51 -36 86 -16 35 -30 71 -31 81 -1 22 -29 19 -33 -3 -1 -10 2
-14 8 -10 7 4 9 -2 6 -15 -4 -14 -2 -20 5 -15 7 4 8 0 4 -11 -5 -11 -3 -15 5
-10 7 5 9 0 6 -14 -4 -14 -2 -20 5 -15 7 4 8 0 4 -11 -5 -11 -3 -15 5 -10 7 5
9 -1 5 -17 -3 -13 -2 -31 4 -39 8 -11 9 -9 4 10 -3 14 17 -22 45 -80 88 -179
188 -318 364 -510 87 -94 87 -94 -14 10 -117 121 -217 249 -289 369 -28 46
-51 80 -51 74 0 -16 104 -177 165 -255 86 -111 218 -251 315 -333 86 -73 109
-88 94 -62 -4 6 2 3 14 -7 26 -23 29 -34 5 -15 -15 11 -14 10 1 -9 20 -23 42
-31 30 -10 -4 8 -3 10 2 5 5 -5 9 -14 9 -19 0 -6 6 -13 14 -16 9 -3 11 0 5 9
-7 12 -5 12 9 0 20 -16 23 -26 5 -15 -9 5 -9 2 1 -9 16 -20 36 -23 25 -4 -4 7
-3 9 2 4 5 -5 9 -14 9 -19 0 -6 6 -13 14 -16 9 -3 11 0 6 9 -5 8 -4 11 1 6 5
-5 9 -14 9 -19 0 -6 6 -13 14 -16 9 -3 11 0 6 8 -5 9 -4 11 4 6 6 -4 9 -11 6
-16 -3 -5 18 -21 47 -36 31 -16 49 -21 43 -12 -7 9 -5 9 5 -2 8 -8 24 -22 35
-30 19 -14 19 -14 5 6 -12 15 -10 15 6 -2 19 -20 153 -94 169 -94 4 0 3 6 -1
13 -4 6 3 2 15 -11 22 -22 48 -31 36 -12 -10 16 0 12 25 -10 26 -22 45 -27 34
-8 -4 7 3 3 15 -10 23 -24 47 -30 35 -9 -4 6 3 2 15 -10 22 -23 48 -32 36 -13
-3 6 1 7 9 4 9 -3 16 -10 16 -15 0 -5 5 -9 11 -9 5 0 7 6 4 13 -4 6 0 4 8 -5
15 -19 32 -25 22 -8 -3 6 1 7 9 4 9 -3 16 -10 16 -15 0 -5 5 -9 11 -9 5 0 7 5
4 10 -10 16 0 12 25 -10 26 -22 44 -26 35 -7 -4 6 0 4 8 -5 16 -21 31 -24 22
-5 -4 6 0 4 8 -5 14 -18 33 -25 23 -9 -3 4 6 6 19 3 14 -2 25 -8 25 -13 0 -5
5 -9 11 -9 5 0 7 4 4 10 -3 6 1 7 9 4 9 -3 16 -10 16 -15 0 -5 5 -9 11 -9 5 0
7 4 4 10 -3 6 1 7 9 4 9 -3 16 -10 16 -15 0 -5 5 -9 11 -9 5 0 8 4 5 9 -3 4 6
6 19 3 14 -2 25 -8 25 -13 0 -5 5 -9 11 -9 5 0 7 4 4 10 -3 6 1 7 9 4 9 -3 16
-10 16 -15 0 -5 5 -9 11 -9 5 0 8 4 5 9 -3 4 6 6 19 3 14 -2 25 -8 25 -13 0
-5 5 -9 11 -9 5 0 7 4 4 10 -3 6 1 7 9 4 9 -3 16 -10 16 -15 0 -5 5 -9 11 -9
5 0 8 4 5 8 -2 4 11 6 30 4 19 -2 34 -8 34 -13 0 -5 5 -9 11 -9 5 0 8 4 5 9
-3 4 6 6 19 3 14 -2 25 -8 25 -13 0 -5 5 -9 11 -9 5 0 8 4 5 9 -3 4 6 6 19 3
14 -2 25 -8 25 -13 0 -5 5 -9 11 -9 5 0 8 3 6 8 -3 4 15 5 39 3 24 -1 44 -7
44 -12 0 -5 5 -9 11 -9 5 0 8 3 6 8 -3 4 21 5 54 4 32 -2 59 -8 59 -13 0 -5 5
-9 11 -9 5 0 8 3 6 7 -3 5 15 6 39 4 24 -1 44 -7 44 -12 0 -5 5 -9 11 -9 5 0
8 3 6 8 -3 4 24 5 59 4 35 -2 64 -8 64 -13 0 -5 5 -9 11 -9 5 0 8 3 6 8 -3 4
134 5 303 2 169 -3 306 -1 303 3 -3 5 24 7 60 5 36 -1 63 1 60 6 -3 4 13 7 35
4 22 -2 38 0 35 5 -3 5 24 7 60 5 36 -1 63 1 60 6 -3 4 15 7 40 5 25 -2 43 0
40 5 -3 5 10 7 30 4 20 -2 33 0 30 5 -3 6 8 8 25 5 18 -2 28 0 25 5 -3 6 9 8
30 5 21 -2 33 0 30 6 -3 5 5 7 20 4 16 -3 24 -1 20 5 -3 6 8 8 30 5 21 -2 33
0 30 6 -4 5 3 7 15 4 14 -4 20 -2 16 4 -5 7 4 9 24 6 18 -3 29 0 25 5 -4 6 5
8 20 5 16 -3 24 -1 20 5 -4 6 2 8 15 5 14 -4 20 -2 16 4 -5 7 4 9 24 6 19 -3
29 0 25 5 -4 6 3 8 15 5 14 -4 20 -2 15 5 -4 7 0 8 11 4 10 -4 15 -3 11 3 -7
12 40 24 56 14 8 -5 9 -3 4 6 -6 10 -1 12 18 8 17 -3 24 -1 20 5 -4 6 0 8 11
4 11 -5 15 -3 10 5 -5 7 0 9 14 6 14 -4 20 -2 15 5 -4 6 2 8 15 5 14 -4 20 -2
15 5 -4 6 2 8 15 5 14 -4 20 -2 15 5 -4 7 0 8 11 4 11 -5 15 -3 10 5 -5 8 -2
9 10 5 9 -4 14 -3 11 2 -7 12 31 24 46 15 8 -5 9 -3 4 6 -6 10 -4 12 9 7 9 -4
14 -3 11 2 -6 11 31 25 44 16 5 -3 13 0 17 6 5 8 2 10 -7 5 -8 -4 -5 0 6 8 11
9 25 14 33 11 8 -3 10 0 6 7 -5 8 -2 9 10 5 11 -5 15 -3 10 5 -5 8 -2 9 10 5
9 -4 14 -3 11 2 -6 11 31 25 44 16 5 -3 13 0 17 6 5 8 3 9 -6 4 -9 -6 -11 -4
-6 4 5 7 14 10 21 7 8 -3 19 3 27 12 12 16 11 16 -7 2 -19 -14 -19 -14 -6 3 8
10 22 16 33 14 10 -3 21 0 25 5 4 7 1 8 -7 3 -9 -6 -11 -4 -6 4 5 7 14 10 22
7 7 -3 16 0 20 6 5 7 2 8 -7 4 -8 -4 -5 0 6 8 11 9 25 14 31 12 7 -3 18 3 26
12 11 15 11 16 -2 7 -9 -5 -4 0 10 13 14 12 30 20 37 18 6 -3 17 3 25 12 12
16 11 16 -7 2 -19 -14 -19 -14 -6 3 8 10 20 16 27 13 7 -3 18 3 26 12 12 16
11 16 -7 2 -19 -14 -19 -14 -6 3 8 10 20 16 27 13 7 -3 18 3 26 12 12 16 11
16 -7 2 -19 -14 -19 -14 -6 3 8 10 20 16 27 13 7 -2 20 5 31 17 l18 22 -25
-20 -25 -20 19 23 c11 12 25 21 32 18 6 -2 11 3 10 12 0 10 6 17 16 17 23 0
188 164 182 180 -3 6 3 18 13 26 17 13 17 13 3 -6 -14 -18 -14 -19 2 -7 9 8
15 19 12 26 -2 6 8 23 23 36 l28 25 -25 -30 -25 -30 27 24 c15 13 24 29 22 36
-3 7 0 16 7 21 8 5 10 3 4 -6 -5 -8 -4 -11 3 -6 6 4 9 13 6 20 -3 7 3 22 13
32 10 11 14 13 8 4 -9 -13 -8 -13 6 -2 10 7 15 21 12 31 -2 9 4 24 14 32 17
13 17 13 3 -6 -14 -18 -14 -19 1 -7 11 8 15 21 11 34 -4 17 -2 20 11 15 12 -4
14 -2 10 10 -5 12 -3 14 7 8 9 -5 11 -4 6 4 -9 15 3 53 15 46 5 -3 6 2 2 11
-4 12 -3 15 5 10 8 -5 10 -1 5 10 -4 12 -3 15 5 10 8 -5 10 -1 5 10 -4 12 -3
15 5 10 8 -5 10 -1 5 10 -4 11 -2 15 4 11 6 -4 8 3 5 20 -3 17 -1 24 6 19 6
-4 8 2 4 16 -3 14 -1 19 6 14 8 -5 10 -1 5 10 -4 10 -2 15 3 11 7 -4 9 6 6 25
-3 20 -1 29 6 24 6 -4 8 2 4 16 -3 13 -1 19 5 15 6 -4 8 4 5 20 -3 15 -1 23 4
20 6 -3 8 9 6 28 -2 19 1 36 9 40 8 6 10 4 4 -6 -5 -8 -4 -11 0 -6 5 4 7 35 6
68 -1 34 1 59 6 56 13 -8 -3 453 -16 466 -6 6 -11 23 -11 37 0 43 -51 200 -95
290 -100 208 -231 352 -495 548 -185 137 -553 313 -786 376 -32 9 -84 23 -114
32 -30 9 -98 27 -150 41 -52 13 -124 32 -160 43 -36 10 -112 28 -170 40 -58
12 -144 32 -192 46 -48 13 -98 24 -112 24 -13 0 -66 9 -118 21 -174 38 -223
48 -418 84 -209 39 -321 62 -495 102 -237 55 -627 168 -633 185 -2 4 -8 8 -14
8 -5 0 -43 14 -84 31 -50 21 -74 36 -74 47 0 15 -2 15 -10 2 -8 -13 -10 -12
-10 3 0 10 -5 15 -10 12 -6 -3 -13 1 -16 9 -3 9 -10 13 -15 10 -5 -3 -9 0 -9
6 0 6 -5 8 -10 5 -6 -3 -13 1 -16 9 -3 9 -10 14 -14 11 -5 -3 -20 9 -34 26
-14 17 -26 27 -26 23 0 -4 -11 3 -25 16 -14 13 -23 25 -20 28 2 3 -7 13 -20
24 -14 11 -23 24 -20 29 4 5 1 9 -6 9 -7 0 -10 3 -6 6 3 4 -4 15 -16 26 -12
11 -15 16 -7 12 12 -7 13 -5 3 8 -7 8 -10 18 -6 21 3 4 1 7 -6 7 -7 0 -9 5 -6
10 3 6 1 10 -5 10 -6 0 -9 4 -6 9 3 5 -1 12 -10 15 -8 3 -14 14 -12 23 1 10
-1 24 -6 32 -7 11 -6 12 5 6 12 -8 12 -6 0 8 -7 9 -10 17 -6 17 4 0 2 7 -5 15
-6 8 -9 19 -6 24 4 5 2 12 -4 16 -14 9 -13 152 2 161 7 5 8 3 3 -6 -6 -9 -4
-11 4 -5 9 5 10 10 2 18 -19 19 -13 65 10 77 16 9 18 14 8 26 -10 12 -9 17 1
27 10 10 11 9 5 -2 -6 -10 -4 -12 4 -7 9 6 9 11 1 21 -9 11 -6 16 10 25 17 9
19 15 11 23 -9 9 -6 16 11 30 13 10 16 16 8 12 -8 -4 -6 1 4 9 11 9 16 16 10
16 -5 0 -3 4 5 9 8 5 15 16 17 23 2 19 -54 17 -70 -2z"/>
<path d="M18152 4289 c-85 -10 -163 -29 -292 -71 -165 -54 -260 -104 -464
-244 -17 -12 -33 -20 -36 -19 -3 2 -6 -4 -7 -13 -1 -15 10 -17 107 -14 105 3
108 3 103 -17 -3 -13 -1 -21 7 -21 9 0 11 -26 8 -99 -3 -96 -2 -99 17 -89 11
6 29 18 40 28 35 30 189 118 220 126 17 4 51 17 76 30 54 27 132 46 274 68
105 17 260 22 252 9 -3 -5 15 -6 40 -4 27 2 43 -1 40 -6 -3 -5 7 -7 25 -5 17
3 28 1 25 -4 -3 -5 13 -8 35 -6 24 3 38 0 35 -5 -3 -5 7 -7 25 -5 20 3 29 1
24 -6 -4 -6 2 -8 16 -4 13 3 19 1 15 -5 -5 -7 1 -9 15 -5 14 3 19 1 14 -6 -5
-8 -1 -10 9 -6 19 8 67 -15 59 -27 -3 -5 3 -6 12 -2 13 5 15 3 9 -7 -5 -9 -4
-11 4 -6 16 10 63 -2 56 -14 -4 -6 1 -7 11 -3 12 4 15 3 10 -5 -5 -8 -1 -10
10 -5 13 5 15 3 9 -7 -5 -9 -4 -11 4 -6 13 8 64 -28 53 -38 -3 -4 2 -4 12 0
13 5 17 4 12 -4 -5 -8 -1 -10 10 -5 12 4 15 3 10 -5 -4 -7 -2 -10 6 -7 16 6
100 -59 90 -69 -4 -4 -2 -6 3 -4 15 4 66 -38 57 -47 -4 -5 -2 -5 4 -2 6 3 37
-21 70 -55 32 -33 53 -58 47 -54 -7 4 -13 2 -13 -3 0 -6 6 -11 13 -11 8 0 22
-10 33 -22 10 -12 13 -18 7 -14 -7 4 -13 2 -13 -3 0 -6 6 -11 14 -11 7 0 20
-8 27 -17 12 -14 12 -16 0 -8 -11 6 -13 4 -8 -9 4 -10 7 -20 7 -22 0 -2 6 -4
14 -4 8 0 18 -5 22 -12 5 -7 3 -8 -6 -3 -10 6 -12 4 -7 -9 4 -10 7 -20 7 -22
0 -2 6 -4 14 -4 7 0 20 -8 27 -17 10 -11 10 -14 2 -9 -7 4 -13 4 -13 1 0 -12
23 -50 39 -63 9 -8 10 -11 4 -7 -7 3 -13 4 -13 0 0 -14 54 -111 69 -123 9 -7
10 -11 4 -7 -19 9 -16 -6 5 -22 9 -8 11 -12 5 -8 -7 3 -13 1 -13 -4 0 -6 4
-11 9 -11 5 0 11 -9 14 -20 3 -11 1 -18 -4 -14 -5 3 -9 0 -9 -5 0 -6 4 -11 9
-11 5 0 12 -7 15 -16 3 -8 2 -12 -4 -9 -6 3 -10 2 -10 -3 0 -6 7 -13 16 -16
13 -5 15 -14 10 -39 -5 -24 -3 -28 5 -17 8 11 9 7 5 -20 -5 -26 -3 -31 5 -20
7 11 9 -4 6 -53 -3 -41 -1 -63 4 -55 5 7 9 -36 9 -105 0 -65 -4 -116 -8 -113
-5 3 -6 -9 -4 -26 3 -18 1 -28 -5 -25 -5 4 -8 -7 -5 -25 3 -19 1 -28 -5 -25
-6 4 -8 -4 -5 -20 3 -17 1 -24 -6 -19 -6 4 -8 -2 -4 -16 3 -13 1 -19 -5 -15
-6 4 -8 -4 -5 -20 3 -16 1 -24 -5 -20 -6 4 -8 -4 -5 -20 3 -16 1 -24 -5 -20
-6 4 -8 -4 -5 -20 3 -18 1 -24 -6 -19 -8 5 -10 1 -5 -10 5 -13 3 -15 -7 -9 -9
5 -11 4 -6 -4 9 -15 -3 -53 -15 -46 -5 3 -6 -2 -2 -11 4 -11 2 -15 -4 -11 -6
4 -10 -1 -9 -11 0 -9 -4 -16 -10 -15 -8 1 -10 -6 -6 -19 3 -13 1 -19 -5 -15
-7 5 -9 -1 -5 -15 3 -13 1 -19 -5 -15 -6 4 -10 -1 -9 -10 0 -10 -6 -18 -14
-18 -8 0 -15 -9 -15 -20 0 -11 -5 -19 -11 -18 -7 1 -11 -5 -10 -15 0 -9 -4
-16 -10 -15 -7 1 -11 -5 -10 -15 2 -30 -22 -18 -81 39 -32 31 -62 58 -68 61
-7 4 -10 -87 -10 -265 l0 -272 268 3 c147 1 267 6 267 10 0 3 -33 39 -72 79
-56 56 -70 77 -63 87 133 192 188 296 243 461 49 146 49 148 67 293 43 339 -9
658 -150 940 -91 182 -163 281 -309 425 -203 201 -426 328 -713 406 -62 17
-152 35 -200 41 -103 12 -326 11 -431 -1z"/>
<path d="M8644 4250 c-28 -4 -60 -13 -72 -19 -13 -7 -27 -9 -32 -6 -6 4 -7 -1
-3 -11 3 -10 2 -15 -3 -12 -5 4 -8 -595 -6 -1525 2 -1071 6 -1531 13 -1529 6
1 8 -2 5 -7 -9 -14 20 -32 39 -24 13 5 16 3 10 -6 -6 -10 -2 -11 15 -6 15 5
20 3 16 -3 -4 -7 6 -9 30 -5 21 4 35 2 32 -3 -4 -5 64 -9 162 -9 95 0 166 4
163 9 -3 5 8 7 25 4 18 -3 29 0 25 5 -4 6 5 8 20 5 16 -3 24 -1 20 5 -4 6 2 8
15 5 13 -4 20 -2 16 4 -3 5 2 8 12 6 14 -2 18 2 16 16 -2 10 0 16 5 13 4 -3 6
681 3 1520 l-5 1526 -25 18 c-14 10 -54 23 -90 29 -73 11 -328 11 -406 0z"/>
<path d="M9962 4240 c-13 -6 -28 -7 -33 -4 -5 3 -8 0 -7 -8 2 -7 -4 -13 -12
-13 -25 -1 -39 -15 -33 -32 4 -11 3 -14 -5 -9 -8 5 -10 1 -5 -10 4 -11 3 -15
-4 -11 -7 5 -9 -1 -5 -15 3 -11 1 -19 -4 -16 -5 4 -9 -593 -9 -1480 0 -1475 0
-1487 20 -1504 11 -10 30 -17 43 -18 13 0 21 -4 18 -9 -4 -5 4 -7 16 -3 12 3
19 1 15 -4 -3 -6 9 -8 30 -6 20 3 33 1 30 -4 -3 -5 65 -9 153 -9 88 0 156 4
153 9 -3 5 10 7 30 4 20 -2 33 0 30 5 -3 6 8 8 25 5 17 -2 28 0 25 5 -3 5 4 7
14 5 26 -4 53 19 46 39 -4 9 -2 14 3 11 5 -4 9 236 9 605 l0 612 118 3 c65 1
116 -1 113 -6 -2 -4 11 -6 31 -4 23 3 33 1 29 -6 -4 -6 2 -8 16 -4 13 3 19 1
15 -5 -4 -6 4 -8 20 -5 16 3 24 1 20 -5 -4 -6 5 -15 19 -22 15 -6 23 -7 19 -1
-3 5 -1 10 4 10 6 0 11 -6 11 -14 0 -8 5 -18 12 -22 7 -4 8 -3 4 4 -17 28 13
8 66 -45 52 -51 76 -85 48 -68 -5 3 -10 1 -10 -4 0 -6 9 -11 20 -11 11 0 20
-5 20 -11 0 -5 -4 -7 -10 -4 -15 9 -13 0 22 -69 17 -36 40 -67 50 -69 10 -3
18 -11 18 -19 0 -10 -3 -9 -10 2 -21 32 -8 -6 43 -128 71 -169 88 -211 159
-387 33 -82 75 -186 93 -230 18 -44 36 -89 39 -100 3 -11 23 -28 43 -37 24
-11 29 -15 13 -12 -19 4 -22 3 -10 -5 8 -6 26 -7 39 -4 14 3 22 2 18 -4 -4 -5
7 -8 25 -5 17 3 28 1 25 -4 -3 -5 87 -9 208 -9 119 0 211 4 208 9 -3 5 10 7
30 4 21 -2 33 0 30 6 -4 5 3 7 15 4 14 -4 20 -2 15 5 -4 6 0 8 10 4 24 -9 30
9 28 82 -2 50 -13 92 -48 181 -25 63 -51 124 -57 135 -7 11 -23 47 -35 80 -12
33 -28 74 -35 90 -34 78 -110 252 -161 370 -101 236 -200 371 -348 473 -32 22
-53 43 -47 47 5 3 15 3 22 -1 7 -5 8 -3 3 6 -6 10 -3 12 13 8 14 -4 20 -2 15
5 -4 6 2 8 15 5 14 -4 20 -2 15 5 -4 6 2 8 15 5 14 -4 20 -2 15 5 -4 7 0 8 11
4 11 -5 15 -3 10 5 -5 8 -2 9 9 5 9 -3 19 -1 23 5 5 7 2 8 -6 3 -9 -6 -11 -4
-6 4 5 7 14 10 22 7 7 -3 16 0 20 6 5 7 2 8 -7 4 -8 -4 -5 0 6 8 11 9 25 14
33 11 8 -3 10 0 6 7 -5 7 -2 9 8 5 10 -3 25 5 39 21 l24 27 -30 -25 -30 -25
25 28 c13 15 29 26 36 23 14 -6 103 85 97 100 -2 6 4 17 14 25 17 13 17 13 3
-6 -14 -18 -14 -19 2 -7 9 8 15 19 12 27 -3 7 0 16 7 21 8 5 10 3 4 -6 -5 -8
-4 -11 3 -6 6 4 9 13 6 20 -3 8 0 17 7 22 8 5 10 3 4 -6 -5 -8 -4 -11 3 -6 6
4 9 12 6 19 -2 7 3 21 12 32 8 11 12 14 8 6 -4 -9 -3 -12 4 -8 5 4 8 17 4 29
-3 13 -1 19 5 15 7 -5 9 1 5 15 -3 13 -1 19 5 15 7 -5 9 1 5 15 -3 13 -1 19 5
15 7 -5 9 1 5 15 -3 13 -1 19 5 15 7 -5 9 1 5 15 -3 13 -1 19 5 15 6 -4 8 4 5
20 -3 16 -1 24 5 20 6 -4 8 4 5 20 -3 14 -1 23 4 20 5 -3 8 12 6 35 -3 22 0
38 4 35 14 -8 -2 252 -20 318 -50 190 -102 282 -224 396 -90 84 -169 130 -313
180 -195 69 -231 72 -894 75 -365 2 -599 0 -613 -6z m1145 -529 c73 -29 172
-91 146 -91 -6 0 -16 7 -24 16 -13 16 -82 54 -96 54 -4 -1 10 -10 32 -22 48
-24 95 -67 95 -85 0 -7 4 -13 8 -13 4 0 14 -16 21 -36 7 -19 19 -38 26 -40 8
-3 11 -12 8 -20 -3 -8 0 -14 7 -14 7 0 9 -8 5 -20 -4 -11 -2 -20 4 -20 7 0 11
-36 11 -101 0 -55 -4 -98 -9 -95 -4 3 -6 -6 -3 -21 3 -17 1 -24 -6 -19 -6 4
-8 -2 -4 -16 3 -14 1 -19 -6 -14 -8 4 -10 2 -6 -8 3 -8 -12 -41 -34 -73 -46
-68 -67 -87 -82 -78 -6 4 -9 1 -8 -7 2 -7 -5 -12 -14 -12 -10 1 -15 -2 -12 -7
8 -13 -109 -63 -186 -80 -44 -9 -132 -14 -270 -14 l-205 0 -3 438 -2 439 262
-4 263 -4 82 -33z"/>
<path d="M12801 4239 c-14 -5 -31 -7 -38 -5 -7 3 -12 0 -10 -7 1 -7 -5 -12
-15 -12 -23 0 -58 -34 -52 -50 3 -7 0 -16 -7 -21 -8 -5 -10 -3 -4 6 5 8 4 11
-3 6 -6 -4 -8 -14 -5 -23 4 -10 2 -14 -4 -10 -6 4 -8 -3 -5 -20 3 -14 1 -23
-4 -20 -5 3 -9 -604 -9 -1468 0 -810 3 -1471 6 -1469 9 5 30 -21 23 -29 -3 -3
4 -3 17 0 14 4 20 2 16 -4 -4 -6 4 -8 20 -5 15 3 23 1 20 -4 -3 -6 9 -8 30 -6
20 3 33 1 30 -4 -3 -5 63 -9 148 -9 86 0 151 4 148 9 -3 5 8 7 25 4 18 -3 29
0 25 5 -4 6 5 8 20 5 16 -3 24 -1 20 5 -4 6 2 8 15 5 13 -4 27 1 37 12 14 15
15 148 16 1291 1 701 4 1264 6 1251 3 -13 9 -19 15 -16 7 5 9 -2 4 -19 -8 -34
63 -234 77 -214 5 7 7 2 3 -14 -7 -32 97 -341 108 -318 3 8 4 2 1 -13 -6 -30
29 -118 39 -96 3 7 4 1 1 -13 -5 -31 29 -129 39 -108 3 8 4 2 1 -13 -7 -34 14
-84 28 -66 6 9 7 5 3 -12 -8 -33 34 -155 47 -138 5 8 7 3 3 -14 -8 -35 3 -65
16 -46 7 9 8 5 4 -13 -7 -31 48 -181 58 -158 3 8 4 2 1 -13 -7 -36 65 -234 78
-215 6 8 7 3 3 -13 -6 -29 14 -106 24 -90 5 7 9 4 13 -9 3 -14 1 -19 -6 -14
-7 4 -8 0 -4 -11 4 -10 7 -21 7 -24 0 -4 4 -1 9 6 6 10 10 9 14 -7 3 -14 1
-19 -6 -14 -7 4 -8 0 -4 -11 4 -10 7 -21 7 -24 0 -4 5 0 11 8 8 11 9 6 4 -20
-5 -26 -4 -31 4 -20 6 8 11 11 11 5 0 -5 7 -32 15 -58 8 -26 10 -45 5 -42 -14
9 -12 -6 5 -35 9 -16 15 -20 15 -10 1 8 13 -16 26 -55 14 -41 22 -80 19 -95
-4 -19 -3 -21 5 -10 11 17 11 16 15 -43 1 -15 6 -31 10 -35 5 -4 5 2 1 13 -5
13 -4 16 2 10 17 -18 34 -84 27 -107 -4 -15 -3 -18 2 -10 6 8 15 -5 27 -43 9
-30 15 -59 12 -63 -2 -4 0 -14 6 -22 8 -12 8 -11 3 5 -5 16 -4 18 7 7 7 -7 13
-30 13 -52 0 -21 2 -35 5 -29 4 5 13 -14 22 -41 9 -28 12 -48 7 -44 -5 3 -9 0
-9 -5 0 -6 5 -11 11 -11 20 0 60 -38 47 -44 -7 -3 0 -2 16 1 18 4 27 2 23 -4
-4 -6 4 -8 20 -5 15 3 24 1 20 -5 -4 -5 7 -8 25 -5 17 3 28 1 25 -4 -3 -5 70
-9 168 -9 98 0 171 4 168 9 -3 5 8 7 25 4 19 -3 29 -1 25 6 -4 5 1 7 11 3 11
-5 15 -3 10 5 -5 7 0 9 14 6 14 -4 20 -2 15 5 -4 6 0 8 9 4 20 -7 38 11 31 31
-4 10 -2 13 5 8 8 -5 10 -1 5 10 -4 11 -2 15 4 11 6 -4 8 3 5 20 -3 17 -1 24
6 19 6 -4 8 1 5 13 -3 10 1 22 8 26 8 6 10 4 4 -5 -5 -8 -4 -11 3 -7 5 4 8 17
4 29 -3 13 -1 19 5 15 6 -4 8 4 5 20 -3 17 -1 24 6 19 6 -4 8 1 5 13 -3 10 1
22 8 26 8 6 10 4 4 -5 -5 -8 -4 -11 2 -7 6 4 8 19 5 33 -3 17 -1 25 6 20 6 -4
8 2 4 16 -3 13 -1 19 5 15 7 -5 9 1 5 15 -3 13 -1 19 5 15 7 -5 9 0 6 12 -3
10 1 22 8 26 8 6 10 4 4 -5 -5 -8 -4 -11 2 -7 6 4 8 19 5 33 -3 17 -1 25 6 20
6 -4 8 2 4 16 -3 13 -1 19 5 15 7 -5 9 1 5 15 -3 13 -1 19 5 15 7 -5 9 1 5 15
-3 13 -1 19 5 15 7 -5 9 1 5 15 -3 14 -1 19 6 14 8 -5 10 -1 5 10 -4 11 -3 15
4 11 7 -5 9 0 6 12 -3 10 1 22 8 26 8 6 10 4 4 -5 -5 -8 -4 -11 2 -7 6 4 8 19
5 33 -3 17 -1 25 6 20 6 -4 8 2 4 16 -3 13 -1 19 5 15 7 -5 9 1 5 15 -3 13 -1
19 5 15 7 -5 9 1 5 15 -3 13 -1 19 5 15 7 -5 9 1 5 15 -3 13 -1 19 5 15 7 -4
9 0 7 10 -3 10 2 27 11 38 9 11 13 14 9 6 -4 -8 -3 -12 3 -8 5 3 8 20 5 38 -3
21 -1 30 6 25 6 -4 8 2 4 16 -3 13 -1 19 5 15 7 -5 9 1 5 15 -3 13 -1 19 5 15
7 -5 9 1 5 15 -3 14 -1 19 6 14 8 -5 10 -1 5 10 -5 13 -3 15 7 9 9 -5 11 -4 6
4 -9 15 3 53 15 46 5 -3 6 2 2 11 -4 11 -2 15 4 11 6 -4 8 3 5 20 -3 17 -1 24
6 19 6 -4 8 2 4 16 -4 16 -2 19 8 13 9 -5 11 -4 6 4 -10 16 2 63 14 56 6 -4 7
1 3 11 -4 11 -3 15 4 11 7 -5 9 1 5 15 -3 13 -1 19 5 15 7 -5 9 1 5 15 -3 13
-1 19 5 15 7 -5 9 1 5 15 -3 14 -1 19 6 14 8 -5 10 -1 5 10 -4 11 -3 15 4 11
7 -5 9 1 5 15 -3 13 -1 19 5 15 6 -4 8 4 5 20 -3 18 -1 24 6 19 8 -5 10 -1 5
10 -4 11 -3 15 4 11 7 -5 9 1 5 15 -3 14 -1 19 6 14 8 -5 10 -1 5 10 -4 11 -3
15 4 11 7 -5 9 1 5 15 -3 13 -1 19 5 15 7 -5 9 1 5 15 -3 13 -1 19 5 15 7 -5
9 1 5 15 -3 14 -1 19 6 14 8 -5 10 -1 5 10 -4 11 -2 15 4 11 6 -4 8 3 5 20 -3
18 -1 24 6 19 8 -5 10 -1 5 10 -4 11 -3 15 4 11 7 -5 9 1 5 15 -3 13 -1 19 5
15 7 -5 9 1 5 15 -4 16 -2 19 8 13 9 -5 11 -4 6 4 -10 16 2 63 14 56 6 -4 7 1
3 11 -4 11 -3 15 4 11 7 -5 9 1 5 15 -4 16 -2 19 8 13 9 -5 11 -4 6 4 -10 16
2 63 14 56 6 -4 7 1 3 11 -4 11 -2 15 4 11 6 -4 8 3 5 20 -4 19 -2 24 8 18 9
-5 11 -4 6 4 -9 15 3 53 15 46 5 -3 6 2 2 11 -4 11 -3 15 4 11 7 -5 9 1 5 15
-3 13 -1 19 5 15 6 -4 8 4 5 20 -3 17 -1 24 6 19 6 -4 8 2 4 16 -3 14 -1 19 6
14 8 -5 10 -1 5 10 -4 11 -2 15 4 11 6 -4 8 3 5 20 -4 19 -2 24 8 18 9 -5 11
-4 6 4 -9 15 3 53 15 46 5 -3 6 2 2 11 -4 12 -3 15 5 10 8 -5 10 -1 5 10 -4
11 -2 15 4 11 6 -4 8 3 5 20 -3 17 -1 24 6 19 6 -4 8 2 4 16 -3 13 -1 19 5 15
7 -5 9 1 5 15 -3 13 -1 19 5 15 7 -5 9 1 5 15 -4 16 -2 19 8 13 9 -5 11 -4 6
4 -9 15 3 53 15 46 5 -3 6 2 2 11 -4 11 -3 15 4 11 7 -5 9 1 5 15 -3 13 -1 19
5 15 6 -4 8 4 5 20 -3 18 -1 24 6 19 7 -4 10 -2 7 6 -3 8 1 31 9 53 8 22 15
35 15 28 1 -6 -3 -23 -9 -37 -6 -17 -6 -26 0 -26 6 0 11 -454 12 -1254 2 -690
0 -1252 -4 -1249 -5 2 -8 0 -8 -5 0 -5 9 -12 21 -15 12 -3 18 -10 15 -15 -4
-6 3 -8 16 -4 13 3 19 1 15 -5 -4 -6 4 -8 20 -5 15 3 23 1 20 -4 -3 -6 9 -8
30 -6 20 3 33 1 30 -4 -3 -5 65 -9 153 -9 89 0 156 4 153 9 -3 5 8 7 25 4 19
-3 29 0 25 5 -4 6 3 8 15 5 14 -4 20 -2 15 5 -4 6 2 8 15 5 14 -4 20 -2 15 5
-4 6 0 8 9 4 20 -7 38 11 31 31 -4 8 -2 13 3 10 5 -4 7 563 4 1445 l-5 1452
-23 51 c-28 62 -62 95 -120 118 -36 14 -87 16 -340 16 -326 0 -381 -7 -457
-57 -22 -15 -45 -26 -52 -26 -7 0 -10 -4 -7 -9 7 -11 -16 -39 -26 -33 -4 3 -7
-3 -6 -13 0 -9 -4 -16 -11 -15 -8 2 -10 -4 -6 -14 4 -11 3 -14 -5 -9 -8 5 -10
1 -5 -10 4 -12 3 -15 -5 -10 -8 5 -10 1 -5 -10 4 -12 3 -15 -5 -10 -8 5 -10 1
-5 -10 4 -12 3 -15 -5 -10 -8 5 -10 1 -5 -10 4 -12 3 -15 -5 -10 -8 5 -10 1
-5 -10 4 -11 2 -15 -4 -11 -6 4 -8 -3 -5 -20 3 -18 1 -24 -6 -19 -8 5 -10 1
-5 -10 4 -11 2 -15 -4 -11 -6 4 -8 -3 -5 -20 3 -18 1 -24 -6 -19 -8 5 -10 1
-5 -10 5 -13 3 -15 -7 -9 -9 5 -11 4 -6 -4 9 -15 -3 -53 -15 -46 -5 3 -6 -2
-2 -11 4 -11 3 -15 -4 -11 -7 5 -9 -1 -5 -15 3 -13 1 -19 -5 -15 -7 5 -9 -1
-5 -15 3 -13 1 -19 -5 -15 -7 5 -9 -1 -5 -15 3 -13 1 -19 -5 -15 -7 5 -9 -1
-5 -15 4 -16 2 -19 -8 -13 -9 5 -11 4 -6 -4 9 -15 -3 -53 -15 -46 -5 3 -6 -2
-2 -11 4 -11 3 -15 -4 -11 -7 5 -9 -1 -5 -15 3 -14 1 -19 -6 -14 -8 5 -10 1
-5 -10 4 -11 2 -15 -4 -11 -6 4 -8 -3 -5 -20 3 -18 1 -24 -6 -19 -8 5 -10 1
-5 -10 5 -13 3 -15 -7 -9 -9 5 -11 4 -6 -4 10 -16 -2 -63 -14 -56 -6 4 -7 -1
-3 -11 4 -12 3 -15 -5 -10 -8 5 -10 1 -5 -10 4 -12 3 -15 -5 -10 -8 5 -10 1
-5 -10 4 -11 2 -15 -4 -11 -6 4 -8 -3 -5 -20 3 -18 1 -24 -6 -19 -8 5 -10 1
-5 -10 4 -11 2 -15 -4 -11 -6 4 -8 -3 -5 -20 3 -18 1 -24 -6 -19 -8 5 -10 1
-5 -10 4 -11 3 -15 -4 -11 -7 5 -9 -1 -5 -15 3 -13 1 -19 -5 -15 -7 5 -9 0 -6
-12 3 -10 -1 -22 -8 -26 -8 -6 -10 -4 -4 5 5 8 4 11 -3 7 -5 -4 -8 -17 -4 -29
3 -13 1 -19 -5 -15 -7 5 -9 -1 -5 -15 3 -13 1 -19 -5 -15 -7 5 -9 -1 -5 -15 3
-13 1 -19 -5 -15 -7 5 -9 -1 -5 -15 4 -16 2 -19 -8 -13 -9 5 -11 4 -6 -4 9
-15 -3 -53 -15 -46 -5 3 -6 -2 -2 -11 4 -11 3 -15 -4 -11 -7 5 -9 -1 -5 -15 3
-13 1 -19 -5 -15 -7 5 -9 -1 -5 -15 4 -16 2 -19 -8 -13 -9 5 -11 4 -6 -4 9
-15 -3 -53 -15 -46 -5 3 -6 -2 -2 -11 4 -11 3 -15 -4 -11 -7 5 -9 -1 -5 -15 3
-13 1 -19 -5 -15 -7 5 -9 -1 -5 -15 3 -13 1 -19 -5 -15 -7 5 -9 -1 -5 -15 3
-13 1 -19 -5 -15 -7 5 -9 -1 -5 -15 4 -16 2 -19 -8 -13 -9 5 -11 4 -6 -4 9
-15 -3 -53 -15 -46 -5 3 -6 -2 -2 -11 4 -12 3 -15 -5 -10 -8 5 -10 1 -5 -10 4
-11 2 -15 -4 -11 -6 4 -8 -3 -5 -20 3 -17 1 -24 -6 -19 -6 4 -8 -1 -5 -13 3
-10 -1 -22 -8 -26 -8 -6 -10 -4 -4 5 5 8 4 11 -2 7 -6 -4 -8 -19 -5 -33 3 -19
1 -25 -6 -20 -8 5 -10 1 -5 -10 4 -11 3 -15 -4 -11 -7 5 -9 -1 -5 -15 3 -14 1
-19 -6 -14 -8 5 -10 1 -5 -10 4 -11 3 -15 -4 -11 -7 5 -9 -1 -5 -15 3 -13 1
-19 -5 -15 -7 5 -9 -1 -5 -15 3 -14 1 -19 -6 -14 -8 5 -10 1 -5 -10 4 -11 2
-15 -4 -11 -6 4 -8 -3 -5 -20 3 -18 1 -24 -6 -19 -8 5 -10 1 -5 -10 5 -13 3
-15 -7 -9 -9 5 -11 4 -6 -4 9 -15 -3 -53 -15 -46 -5 3 -6 -2 -2 -11 4 -11 3
-15 -4 -11 -7 5 -9 -1 -5 -15 3 -13 1 -19 -5 -15 -7 5 -9 -1 -5 -15 3 -13 1
-19 -5 -15 -7 5 -9 -1 -5 -15 3 -13 1 -19 -5 -15 -7 5 -9 -1 -5 -15 4 -16 2
-19 -8 -13 -9 6 -11 4 -5 -4 4 -7 -1 -31 -11 -52 l-17 -40 -15 33 c-7 18 -26
69 -42 113 -67 192 -112 312 -125 342 -8 17 -15 34 -15 38 0 3 -30 88 -66 188
-103 282 -145 399 -155 432 -5 17 -13 39 -19 50 -5 11 -28 72 -51 135 -23 63
-57 158 -75 210 -19 52 -46 129 -60 170 -14 41 -32 89 -39 105 -7 17 -25 65
-38 107 -14 43 -36 92 -48 110 -34 50 -101 118 -133 135 -83 43 -109 46 -451
49 -207 2 -339 0 -354 -7z"/>
<path d="M16903 3839 c-1 -11 2 -17 6 -14 5 2 17 -5 27 -17 11 -12 13 -18 7
-14 -7 4 -13 3 -13 -2 0 -6 11 -13 25 -16 14 -4 23 -11 20 -17 -4 -5 -2 -8 2
-7 5 2 26 -11 46 -29 28 -25 33 -34 23 -42 -7 -6 -16 -8 -20 -4 -4 4 -4 -1 0
-11 5 -13 4 -17 -3 -13 -6 4 -10 -1 -9 -11 0 -9 -4 -16 -10 -15 -7 1 -11 -5
-10 -15 0 -9 -5 -16 -12 -14 -8 1 -11 -2 -7 -8 8 -13 -14 -42 -26 -34 -5 3 -6
-3 -2 -12 4 -11 2 -15 -4 -11 -6 4 -10 -1 -9 -11 0 -9 -4 -16 -11 -15 -8 2
-10 -4 -6 -14 4 -11 3 -14 -5 -9 -8 5 -10 1 -5 -10 4 -12 3 -15 -5 -10 -8 5
-10 1 -5 -10 4 -12 3 -15 -5 -10 -8 5 -10 1 -5 -10 4 -12 3 -15 -5 -10 -8 5
-10 1 -5 -10 4 -12 3 -15 -5 -10 -8 5 -10 1 -5 -10 4 -12 3 -15 -5 -10 -8 5
-10 1 -5 -10 5 -13 3 -15 -7 -9 -9 5 -11 4 -6 -4 9 -15 -3 -53 -15 -46 -5 3
-6 -2 -2 -11 4 -11 3 -15 -4 -11 -7 5 -9 -1 -5 -15 3 -14 1 -19 -6 -14 -8 5
-10 1 -5 -10 4 -11 3 -15 -4 -11 -7 5 -9 -1 -5 -15 3 -13 1 -19 -5 -15 -6 4
-8 -4 -5 -20 3 -17 1 -24 -6 -19 -6 4 -8 -2 -4 -16 3 -13 1 -19 -5 -15 -6 4
-8 -4 -5 -20 3 -16 1 -24 -5 -20 -6 4 -8 -4 -5 -20 3 -16 1 -24 -5 -20 -6 4
-8 -4 -5 -20 3 -16 1 -24 -5 -20 -6 4 -8 -4 -5 -20 3 -15 1 -23 -4 -20 -6 3
-8 -9 -6 -30 3 -20 1 -33 -4 -30 -5 3 -8 -29 -6 -70 2 -41 0 -73 -5 -70 -4 3
-8 -48 -8 -113 0 -65 4 -113 8 -107 4 7 7 -23 5 -65 -2 -43 0 -71 5 -65 5 7 7
-9 4 -37 -3 -27 -1 -43 3 -36 10 17 23 -35 15 -63 -5 -18 -4 -19 5 -7 9 12 10
8 6 -20 -5 -27 -3 -31 5 -20 8 11 9 5 5 -25 -3 -22 -2 -34 2 -27 5 8 15 -8 26
-43 9 -30 15 -59 12 -63 -2 -4 0 -14 6 -22 8 -12 9 -12 4 3 -3 10 -2 16 3 13
5 -3 11 -15 14 -26 3 -13 1 -18 -6 -13 -7 4 -8 0 -4 -11 4 -10 7 -21 7 -24 0
-4 4 -1 9 6 6 10 10 9 14 -7 3 -14 1 -19 -6 -14 -7 4 -8 0 -4 -11 4 -10 7 -21
7 -24 0 -4 4 -2 8 5 5 8 11 3 19 -13 10 -22 10 -24 -3 -13 -12 10 -12 5 2 -24
10 -20 23 -37 30 -37 7 0 16 -5 20 -12 4 -7 3 -8 -4 -4 -15 9 -15 3 0 -29 6
-14 17 -25 24 -25 7 0 16 -5 20 -12 4 -7 3 -8 -4 -4 -7 4 -12 2 -12 -3 0 -6 6
-11 14 -11 8 0 18 -5 22 -12 4 -7 3 -8 -4 -4 -7 4 -12 2 -12 -3 0 -6 6 -11 14
-11 7 0 20 -8 27 -17 10 -11 10 -14 2 -9 -7 4 -13 2 -13 -3 0 -6 6 -11 14 -11
8 0 18 -5 22 -12 4 -7 3 -8 -4 -4 -7 4 -12 2 -12 -3 0 -6 6 -11 13 -11 8 0 22
-10 33 -22 10 -12 13 -18 7 -14 -7 4 -13 2 -13 -3 0 -6 6 -11 14 -11 7 0 20
-8 27 -17 10 -11 10 -14 2 -9 -7 4 -13 2 -13 -3 0 -6 5 -11 11 -11 7 0 48 -35
93 -78 100 -96 218 -185 336 -254 49 -29 88 -54 86 -56 -2 -2 -49 24 -105 57
-56 33 -99 56 -96 52 10 -18 197 -121 207 -115 10 6 92 -26 84 -33 -2 -3 -18
3 -35 12 -17 8 -31 13 -31 11 0 -13 59 -34 80 -29 16 4 21 3 16 -5 -4 -8 -2
-10 8 -6 8 3 23 0 33 -6 17 -11 17 -11 0 -6 -11 3 -15 2 -12 -4 3 -6 18 -7 32
-4 17 5 24 3 19 -4 -4 -6 1 -8 13 -5 11 3 28 0 38 -7 17 -11 17 -11 0 -6 -10
3 -15 2 -12 -4 3 -5 20 -7 37 -3 21 4 29 3 25 -5 -5 -6 1 -8 15 -4 12 3 19 1
15 -4 -3 -6 9 -8 30 -6 22 3 33 1 30 -5 -4 -6 4 -8 20 -5 15 3 23 1 20 -4 -3
-6 9 -8 30 -6 20 3 33 0 30 -4 -3 -5 13 -8 35 -6 22 3 38 0 35 -4 -3 -5 79 -9
183 -9 105 0 186 4 183 9 -3 5 10 7 30 4 20 -2 33 0 30 5 -3 6 8 8 25 5 18 -3
29 0 25 5 -4 6 5 8 20 5 16 -3 24 -1 20 5 -3 6 10 8 35 5 23 -2 38 1 35 6 -4
5 3 7 15 4 14 -4 20 -2 15 5 -4 6 2 8 15 5 12 -4 20 -2 17 3 -8 11 40 23 56
13 8 -5 9 -3 4 6 -6 10 -3 12 13 8 14 -4 20 -2 15 5 -4 6 2 8 15 5 12 -4 20
-2 17 3 -8 11 40 23 56 13 8 -5 9 -3 4 6 -6 10 -4 12 9 7 10 -4 15 -3 11 3 -3
5 27 25 67 45 135 65 298 175 298 201 0 11 -21 14 -104 14 -85 0 -105 3 -110
16 -3 9 -6 64 -6 124 l0 109 -27 -3 c-16 -2 -28 -9 -28 -17 0 -8 -8 -13 -17
-13 -10 1 -16 -3 -15 -10 1 -6 -6 -10 -15 -10 -10 1 -16 -3 -15 -10 1 -6 -6
-10 -15 -10 -10 1 -15 -2 -13 -7 7 -11 -93 -62 -106 -54 -5 4 -8 1 -7 -6 2 -7
-25 -22 -62 -36 -36 -14 -85 -33 -110 -43 -94 -38 -207 -53 -390 -53 -197 0
-265 11 -431 69 -163 56 -318 154 -449 283 -205 203 -294 362 -370 661 -23 90
-42 398 -24 387 5 -3 8 13 6 35 -3 25 -1 38 5 35 6 -4 8 4 5 20 -3 16 -1 24 5
20 6 -4 8 4 5 20 -3 16 -1 24 5 20 6 -4 8 4 5 20 -3 16 -1 24 5 20 6 -4 8 4 5
20 -3 16 -1 24 5 20 6 -4 8 4 5 20 -3 18 -1 24 6 19 8 -5 10 -1 5 10 -5 13 -3
15 7 9 9 -5 11 -4 6 4 -10 16 2 63 14 56 6 -4 7 1 3 11 -4 12 -3 15 5 10 8 -5
10 -1 5 10 -4 12 -3 15 5 10 8 -5 10 -1 5 10 -4 11 -3 15 4 11 7 -4 9 0 7 10
-3 10 2 27 11 38 9 11 13 13 9 5 -4 -8 -3 -12 2 -7 4 4 9 18 9 30 0 12 5 21
12 20 8 -2 10 4 6 14 -4 10 -2 14 4 10 6 -4 10 1 9 10 0 10 6 18 14 18 8 1 14
7 12 13 -1 7 3 22 9 34 10 19 14 17 73 -40 106 -104 101 -114 98 210 l-3 279
-282 -1 c-274 -1 -283 -2 -284 -21z"/>
<path d="M17619 3005 c0 0 -1 -25 -2 -55 l-2 -55 85 0 85 0 0 -251 c0 -242 1
-251 19 -246 11 3 17 1 14 -4 -4 -5 11 -9 32 -9 21 0 36 4 32 9 -3 5 3 7 14 4
18 -5 19 4 19 246 l0 251 85 0 85 0 -5 50 -5 50 -228 5 c-125 3 -227 5 -228 5z"/>
<path d="M18152 2998 c-4 -4 -5 -137 -2 -297 3 -159 2 -287 -2 -284 -5 2 -8
-1 -8 -6 0 -6 9 -11 21 -11 11 0 18 -3 16 -7 -8 -13 306 -3 321 9 8 7 12 26
10 47 l-3 36 -112 3 -113 3 0 89 0 90 95 0 95 0 0 45 0 45 -95 0 -95 0 0 70 0
70 105 0 c102 0 106 1 116 24 7 14 9 36 5 50 l-6 25 -171 3 c-93 2 -173 0
-177 -4z"/>
<path d="M18782 2996 c-23 -8 -54 -21 -68 -30 -13 -9 -29 -14 -34 -11 -6 4 -7
-1 -3 -11 5 -13 2 -16 -9 -12 -10 4 -15 1 -14 -10 0 -9 -4 -16 -10 -15 -7 1
-11 -5 -10 -15 0 -9 -4 -16 -10 -15 -8 1 -10 -6 -6 -19 3 -13 1 -19 -5 -15 -7
5 -9 -1 -5 -15 3 -12 1 -19 -5 -15 -5 4 -8 -6 -5 -25 3 -17 1 -28 -4 -25 -5 3
-9 -32 -9 -78 0 -47 4 -78 8 -72 5 7 6 -6 3 -28 -4 -27 -2 -35 4 -25 9 13 10
13 10 0 0 -8 7 -28 15 -44 14 -26 14 -27 0 -16 -13 11 -14 10 -9 -4 3 -9 11
-16 16 -16 16 0 77 -57 70 -65 -4 -4 -2 -6 3 -5 22 5 46 -1 41 -9 -4 -5 4 -7
16 -3 11 3 19 1 16 -4 -4 -5 34 -7 90 -3 119 7 158 24 168 73 7 41 -3 79 -19
72 -7 -2 -35 -14 -63 -27 -71 -30 -131 -21 -179 28 -40 41 -51 80 -49 174 2
79 30 141 77 169 45 28 158 26 140 -3 -3 -6 -1 -7 5 -3 13 8 56 -17 46 -27 -3
-3 3 -3 15 0 18 5 21 13 21 59 0 53 -1 54 -40 74 -53 27 -152 34 -208 16z"/>
</g>
</svg>
